G04 #@! TF.GenerationSoftware,KiCad,Pcbnew,(5.1.9)-1*
G04 #@! TF.CreationDate,2021-04-25T10:49:25+05:30*
G04 #@! TF.ProjectId,LOGIC LEVEL SHIFTER,4c4f4749-4320-44c4-9556-454c20534849,rev?*
G04 #@! TF.SameCoordinates,Original*
G04 #@! TF.FileFunction,Paste,Top*
G04 #@! TF.FilePolarity,Positive*
%FSLAX46Y46*%
G04 Gerber Fmt 4.6, Leading zero omitted, Abs format (unit mm)*
G04 Created by KiCad (PCBNEW (5.1.9)-1) date 2021-04-25 10:49:25*
%MOMM*%
%LPD*%
G01*
G04 APERTURE LIST*
%ADD10R,0.899160X0.797560*%
G04 APERTURE END LIST*
G36*
G01*
X4612500Y806250D02*
X4612500Y-106250D01*
G75*
G02*
X4368750Y-350000I-243750J0D01*
G01*
X3881250Y-350000D01*
G75*
G02*
X3637500Y-106250I0J243750D01*
G01*
X3637500Y806250D01*
G75*
G02*
X3881250Y1050000I243750J0D01*
G01*
X4368750Y1050000D01*
G75*
G02*
X4612500Y806250I0J-243750D01*
G01*
G37*
G36*
G01*
X6487500Y806250D02*
X6487500Y-106250D01*
G75*
G02*
X6243750Y-350000I-243750J0D01*
G01*
X5756250Y-350000D01*
G75*
G02*
X5512500Y-106250I0J243750D01*
G01*
X5512500Y806250D01*
G75*
G02*
X5756250Y1050000I243750J0D01*
G01*
X6243750Y1050000D01*
G75*
G02*
X6487500Y806250I0J-243750D01*
G01*
G37*
G36*
G01*
X3075000Y-15856250D02*
X3075000Y-14943750D01*
G75*
G02*
X3318750Y-14700000I243750J0D01*
G01*
X3806250Y-14700000D01*
G75*
G02*
X4050000Y-14943750I0J-243750D01*
G01*
X4050000Y-15856250D01*
G75*
G02*
X3806250Y-16100000I-243750J0D01*
G01*
X3318750Y-16100000D01*
G75*
G02*
X3075000Y-15856250I0J243750D01*
G01*
G37*
G36*
G01*
X4950000Y-15856250D02*
X4950000Y-14943750D01*
G75*
G02*
X5193750Y-14700000I243750J0D01*
G01*
X5681250Y-14700000D01*
G75*
G02*
X5925000Y-14943750I0J-243750D01*
G01*
X5925000Y-15856250D01*
G75*
G02*
X5681250Y-16100000I-243750J0D01*
G01*
X5193750Y-16100000D01*
G75*
G02*
X4950000Y-15856250I0J243750D01*
G01*
G37*
G36*
G01*
X4950000Y-10756250D02*
X4950000Y-9843750D01*
G75*
G02*
X5193750Y-9600000I243750J0D01*
G01*
X5681250Y-9600000D01*
G75*
G02*
X5925000Y-9843750I0J-243750D01*
G01*
X5925000Y-10756250D01*
G75*
G02*
X5681250Y-11000000I-243750J0D01*
G01*
X5193750Y-11000000D01*
G75*
G02*
X4950000Y-10756250I0J243750D01*
G01*
G37*
G36*
G01*
X3075000Y-10756250D02*
X3075000Y-9843750D01*
G75*
G02*
X3318750Y-9600000I243750J0D01*
G01*
X3806250Y-9600000D01*
G75*
G02*
X4050000Y-9843750I0J-243750D01*
G01*
X4050000Y-10756250D01*
G75*
G02*
X3806250Y-11000000I-243750J0D01*
G01*
X3318750Y-11000000D01*
G75*
G02*
X3075000Y-10756250I0J243750D01*
G01*
G37*
G36*
G01*
X4950000Y-5706250D02*
X4950000Y-4793750D01*
G75*
G02*
X5193750Y-4550000I243750J0D01*
G01*
X5681250Y-4550000D01*
G75*
G02*
X5925000Y-4793750I0J-243750D01*
G01*
X5925000Y-5706250D01*
G75*
G02*
X5681250Y-5950000I-243750J0D01*
G01*
X5193750Y-5950000D01*
G75*
G02*
X4950000Y-5706250I0J243750D01*
G01*
G37*
G36*
G01*
X3075000Y-5706250D02*
X3075000Y-4793750D01*
G75*
G02*
X3318750Y-4550000I243750J0D01*
G01*
X3806250Y-4550000D01*
G75*
G02*
X4050000Y-4793750I0J-243750D01*
G01*
X4050000Y-5706250D01*
G75*
G02*
X3806250Y-5950000I-243750J0D01*
G01*
X3318750Y-5950000D01*
G75*
G02*
X3075000Y-5706250I0J243750D01*
G01*
G37*
G36*
G01*
X14450000Y-15856250D02*
X14450000Y-14943750D01*
G75*
G02*
X14693750Y-14700000I243750J0D01*
G01*
X15181250Y-14700000D01*
G75*
G02*
X15425000Y-14943750I0J-243750D01*
G01*
X15425000Y-15856250D01*
G75*
G02*
X15181250Y-16100000I-243750J0D01*
G01*
X14693750Y-16100000D01*
G75*
G02*
X14450000Y-15856250I0J243750D01*
G01*
G37*
G36*
G01*
X12575000Y-15856250D02*
X12575000Y-14943750D01*
G75*
G02*
X12818750Y-14700000I243750J0D01*
G01*
X13306250Y-14700000D01*
G75*
G02*
X13550000Y-14943750I0J-243750D01*
G01*
X13550000Y-15856250D01*
G75*
G02*
X13306250Y-16100000I-243750J0D01*
G01*
X12818750Y-16100000D01*
G75*
G02*
X12575000Y-15856250I0J243750D01*
G01*
G37*
G36*
G01*
X14450000Y-10756250D02*
X14450000Y-9843750D01*
G75*
G02*
X14693750Y-9600000I243750J0D01*
G01*
X15181250Y-9600000D01*
G75*
G02*
X15425000Y-9843750I0J-243750D01*
G01*
X15425000Y-10756250D01*
G75*
G02*
X15181250Y-11000000I-243750J0D01*
G01*
X14693750Y-11000000D01*
G75*
G02*
X14450000Y-10756250I0J243750D01*
G01*
G37*
G36*
G01*
X12575000Y-10756250D02*
X12575000Y-9843750D01*
G75*
G02*
X12818750Y-9600000I243750J0D01*
G01*
X13306250Y-9600000D01*
G75*
G02*
X13550000Y-9843750I0J-243750D01*
G01*
X13550000Y-10756250D01*
G75*
G02*
X13306250Y-11000000I-243750J0D01*
G01*
X12818750Y-11000000D01*
G75*
G02*
X12575000Y-10756250I0J243750D01*
G01*
G37*
G36*
G01*
X14450000Y-5706250D02*
X14450000Y-4793750D01*
G75*
G02*
X14693750Y-4550000I243750J0D01*
G01*
X15181250Y-4550000D01*
G75*
G02*
X15425000Y-4793750I0J-243750D01*
G01*
X15425000Y-5706250D01*
G75*
G02*
X15181250Y-5950000I-243750J0D01*
G01*
X14693750Y-5950000D01*
G75*
G02*
X14450000Y-5706250I0J243750D01*
G01*
G37*
G36*
G01*
X12575000Y-5706250D02*
X12575000Y-4793750D01*
G75*
G02*
X12818750Y-4550000I243750J0D01*
G01*
X13306250Y-4550000D01*
G75*
G02*
X13550000Y-4793750I0J-243750D01*
G01*
X13550000Y-5706250D01*
G75*
G02*
X13306250Y-5950000I-243750J0D01*
G01*
X12818750Y-5950000D01*
G75*
G02*
X12575000Y-5706250I0J243750D01*
G01*
G37*
G36*
G01*
X4950000Y-13306250D02*
X4950000Y-12393750D01*
G75*
G02*
X5193750Y-12150000I243750J0D01*
G01*
X5681250Y-12150000D01*
G75*
G02*
X5925000Y-12393750I0J-243750D01*
G01*
X5925000Y-13306250D01*
G75*
G02*
X5681250Y-13550000I-243750J0D01*
G01*
X5193750Y-13550000D01*
G75*
G02*
X4950000Y-13306250I0J243750D01*
G01*
G37*
G36*
G01*
X3075000Y-13306250D02*
X3075000Y-12393750D01*
G75*
G02*
X3318750Y-12150000I243750J0D01*
G01*
X3806250Y-12150000D01*
G75*
G02*
X4050000Y-12393750I0J-243750D01*
G01*
X4050000Y-13306250D01*
G75*
G02*
X3806250Y-13550000I-243750J0D01*
G01*
X3318750Y-13550000D01*
G75*
G02*
X3075000Y-13306250I0J243750D01*
G01*
G37*
G36*
G01*
X4950000Y-8206250D02*
X4950000Y-7293750D01*
G75*
G02*
X5193750Y-7050000I243750J0D01*
G01*
X5681250Y-7050000D01*
G75*
G02*
X5925000Y-7293750I0J-243750D01*
G01*
X5925000Y-8206250D01*
G75*
G02*
X5681250Y-8450000I-243750J0D01*
G01*
X5193750Y-8450000D01*
G75*
G02*
X4950000Y-8206250I0J243750D01*
G01*
G37*
G36*
G01*
X3075000Y-8206250D02*
X3075000Y-7293750D01*
G75*
G02*
X3318750Y-7050000I243750J0D01*
G01*
X3806250Y-7050000D01*
G75*
G02*
X4050000Y-7293750I0J-243750D01*
G01*
X4050000Y-8206250D01*
G75*
G02*
X3806250Y-8450000I-243750J0D01*
G01*
X3318750Y-8450000D01*
G75*
G02*
X3075000Y-8206250I0J243750D01*
G01*
G37*
G36*
G01*
X4950000Y-3156250D02*
X4950000Y-2243750D01*
G75*
G02*
X5193750Y-2000000I243750J0D01*
G01*
X5681250Y-2000000D01*
G75*
G02*
X5925000Y-2243750I0J-243750D01*
G01*
X5925000Y-3156250D01*
G75*
G02*
X5681250Y-3400000I-243750J0D01*
G01*
X5193750Y-3400000D01*
G75*
G02*
X4950000Y-3156250I0J243750D01*
G01*
G37*
G36*
G01*
X3075000Y-3156250D02*
X3075000Y-2243750D01*
G75*
G02*
X3318750Y-2000000I243750J0D01*
G01*
X3806250Y-2000000D01*
G75*
G02*
X4050000Y-2243750I0J-243750D01*
G01*
X4050000Y-3156250D01*
G75*
G02*
X3806250Y-3400000I-243750J0D01*
G01*
X3318750Y-3400000D01*
G75*
G02*
X3075000Y-3156250I0J243750D01*
G01*
G37*
G36*
G01*
X14450000Y-13306250D02*
X14450000Y-12393750D01*
G75*
G02*
X14693750Y-12150000I243750J0D01*
G01*
X15181250Y-12150000D01*
G75*
G02*
X15425000Y-12393750I0J-243750D01*
G01*
X15425000Y-13306250D01*
G75*
G02*
X15181250Y-13550000I-243750J0D01*
G01*
X14693750Y-13550000D01*
G75*
G02*
X14450000Y-13306250I0J243750D01*
G01*
G37*
G36*
G01*
X12575000Y-13306250D02*
X12575000Y-12393750D01*
G75*
G02*
X12818750Y-12150000I243750J0D01*
G01*
X13306250Y-12150000D01*
G75*
G02*
X13550000Y-12393750I0J-243750D01*
G01*
X13550000Y-13306250D01*
G75*
G02*
X13306250Y-13550000I-243750J0D01*
G01*
X12818750Y-13550000D01*
G75*
G02*
X12575000Y-13306250I0J243750D01*
G01*
G37*
G36*
G01*
X14450000Y-8206250D02*
X14450000Y-7293750D01*
G75*
G02*
X14693750Y-7050000I243750J0D01*
G01*
X15181250Y-7050000D01*
G75*
G02*
X15425000Y-7293750I0J-243750D01*
G01*
X15425000Y-8206250D01*
G75*
G02*
X15181250Y-8450000I-243750J0D01*
G01*
X14693750Y-8450000D01*
G75*
G02*
X14450000Y-8206250I0J243750D01*
G01*
G37*
G36*
G01*
X12575000Y-8206250D02*
X12575000Y-7293750D01*
G75*
G02*
X12818750Y-7050000I243750J0D01*
G01*
X13306250Y-7050000D01*
G75*
G02*
X13550000Y-7293750I0J-243750D01*
G01*
X13550000Y-8206250D01*
G75*
G02*
X13306250Y-8450000I-243750J0D01*
G01*
X12818750Y-8450000D01*
G75*
G02*
X12575000Y-8206250I0J243750D01*
G01*
G37*
G36*
G01*
X14450000Y-3156250D02*
X14450000Y-2243750D01*
G75*
G02*
X14693750Y-2000000I243750J0D01*
G01*
X15181250Y-2000000D01*
G75*
G02*
X15425000Y-2243750I0J-243750D01*
G01*
X15425000Y-3156250D01*
G75*
G02*
X15181250Y-3400000I-243750J0D01*
G01*
X14693750Y-3400000D01*
G75*
G02*
X14450000Y-3156250I0J243750D01*
G01*
G37*
G36*
G01*
X12575000Y-3156250D02*
X12575000Y-2243750D01*
G75*
G02*
X12818750Y-2000000I243750J0D01*
G01*
X13306250Y-2000000D01*
G75*
G02*
X13550000Y-2243750I0J-243750D01*
G01*
X13550000Y-3156250D01*
G75*
G02*
X13306250Y-3400000I-243750J0D01*
G01*
X12818750Y-3400000D01*
G75*
G02*
X12575000Y-3156250I0J243750D01*
G01*
G37*
D10*
X8110180Y-17250000D03*
X10208220Y-16300040D03*
X10208220Y-18199960D03*
X8110180Y-10450000D03*
X10208220Y-9500040D03*
X10208220Y-11399960D03*
X8110180Y-3650000D03*
X10208220Y-2700040D03*
X10208220Y-4599960D03*
X8110180Y-13850000D03*
X10208220Y-12900040D03*
X10208220Y-14799960D03*
X8110180Y-7050000D03*
X10208220Y-6100040D03*
X10208220Y-7999960D03*
X8110180Y-250000D03*
X10208220Y699960D03*
X10208220Y-1199960D03*
G36*
G01*
X13050000Y806250D02*
X13050000Y-106250D01*
G75*
G02*
X12806250Y-350000I-243750J0D01*
G01*
X12318750Y-350000D01*
G75*
G02*
X12075000Y-106250I0J243750D01*
G01*
X12075000Y806250D01*
G75*
G02*
X12318750Y1050000I243750J0D01*
G01*
X12806250Y1050000D01*
G75*
G02*
X13050000Y806250I0J-243750D01*
G01*
G37*
G36*
G01*
X14925000Y806250D02*
X14925000Y-106250D01*
G75*
G02*
X14681250Y-350000I-243750J0D01*
G01*
X14193750Y-350000D01*
G75*
G02*
X13950000Y-106250I0J243750D01*
G01*
X13950000Y806250D01*
G75*
G02*
X14193750Y1050000I243750J0D01*
G01*
X14681250Y1050000D01*
G75*
G02*
X14925000Y806250I0J-243750D01*
G01*
G37*
M02*
