M48
; DRILL file {KiCad (5.1.9)-1} date 04/25/21 10:49:27
; FORMAT={-:-/ absolute / metric / decimal}
; #@! TF.CreationDate,2021-04-25T10:49:27+05:30
; #@! TF.GenerationSoftware,Kicad,Pcbnew,(5.1.9)-1
FMAT,2
METRIC
T1C0.300
T2C1.000
%
G90
G05
T1
X2.5Y-2.65
X2.5Y-5.25
X2.5Y-7.85
X2.5Y-10.25
X2.5Y-12.75
X2.5Y-15.35
X3.0Y0.85
X7.0Y0.85
X9.2Y-1.55
X13.5Y1.35
X15.5Y0.85
X15.9Y-2.75
X15.9Y-5.25
X15.9Y-7.75
X15.9Y-10.35
X15.9Y-12.85
X15.9Y-15.35
T2
X0.25Y-0.15
X0.25Y-2.69
X0.25Y-5.23
X0.25Y-7.77
X0.25Y-10.31
X0.25Y-12.85
X0.25Y-15.39
X0.25Y-17.93
X18.03Y-0.15
X18.03Y-2.69
X18.03Y-5.23
X18.03Y-7.77
X18.03Y-10.31
X18.03Y-12.85
X18.03Y-15.39
X18.03Y-17.93
T0
M30
