G04 #@! TF.GenerationSoftware,KiCad,Pcbnew,(5.1.9)-1*
G04 #@! TF.CreationDate,2021-04-25T10:49:25+05:30*
G04 #@! TF.ProjectId,LOGIC LEVEL SHIFTER,4c4f4749-4320-44c4-9556-454c20534849,rev?*
G04 #@! TF.SameCoordinates,Original*
G04 #@! TF.FileFunction,Legend,Bot*
G04 #@! TF.FilePolarity,Positive*
%FSLAX46Y46*%
G04 Gerber Fmt 4.6, Leading zero omitted, Abs format (unit mm)*
G04 Created by KiCad (PCBNEW (5.1.9)-1) date 2021-04-25 10:49:25*
%MOMM*%
%LPD*%
G01*
G04 APERTURE LIST*
%ADD10C,0.150000*%
%ADD11C,0.120000*%
G04 APERTURE END LIST*
D10*
X13761904Y-18976190D02*
X13809523Y-18928571D01*
X13904761Y-18880952D01*
X14000000Y-18880952D01*
X14095238Y-18928571D01*
X14142857Y-18976190D01*
X14190476Y-19071428D01*
X14190476Y-19166666D01*
X14142857Y-19261904D01*
X14095238Y-19309523D01*
X14000000Y-19357142D01*
X13904761Y-19357142D01*
X13809523Y-19309523D01*
X13761904Y-19261904D01*
X13761904Y-18880952D02*
X13761904Y-19261904D01*
X13714285Y-19309523D01*
X13666666Y-19309523D01*
X13571428Y-19261904D01*
X13523809Y-19166666D01*
X13523809Y-18928571D01*
X13619047Y-18785714D01*
X13761904Y-18690476D01*
X13952380Y-18642857D01*
X14142857Y-18690476D01*
X14285714Y-18785714D01*
X14380952Y-18928571D01*
X14428571Y-19119047D01*
X14380952Y-19309523D01*
X14285714Y-19452380D01*
X14142857Y-19547619D01*
X13952380Y-19595238D01*
X13761904Y-19547619D01*
X13619047Y-19452380D01*
X13095238Y-19452380D02*
X13095238Y-18785714D01*
X13095238Y-18880952D02*
X13047619Y-18833333D01*
X12952380Y-18785714D01*
X12809523Y-18785714D01*
X12714285Y-18833333D01*
X12666666Y-18928571D01*
X12666666Y-19452380D01*
X12666666Y-18928571D02*
X12619047Y-18833333D01*
X12523809Y-18785714D01*
X12380952Y-18785714D01*
X12285714Y-18833333D01*
X12238095Y-18928571D01*
X12238095Y-19452380D01*
X11333333Y-19452380D02*
X11333333Y-18928571D01*
X11380952Y-18833333D01*
X11476190Y-18785714D01*
X11666666Y-18785714D01*
X11761904Y-18833333D01*
X11333333Y-19404761D02*
X11428571Y-19452380D01*
X11666666Y-19452380D01*
X11761904Y-19404761D01*
X11809523Y-19309523D01*
X11809523Y-19214285D01*
X11761904Y-19119047D01*
X11666666Y-19071428D01*
X11428571Y-19071428D01*
X11333333Y-19023809D01*
X10857142Y-19452380D02*
X10857142Y-18452380D01*
X10761904Y-19071428D02*
X10476190Y-19452380D01*
X10476190Y-18785714D02*
X10857142Y-19166666D01*
X9666666Y-19404761D02*
X9761904Y-19452380D01*
X9952380Y-19452380D01*
X10047619Y-19404761D01*
X10095238Y-19309523D01*
X10095238Y-18928571D01*
X10047619Y-18833333D01*
X9952380Y-18785714D01*
X9761904Y-18785714D01*
X9666666Y-18833333D01*
X9619047Y-18928571D01*
X9619047Y-19023809D01*
X10095238Y-19119047D01*
X9190476Y-19452380D02*
X9190476Y-18785714D01*
X9190476Y-18976190D02*
X9142857Y-18880952D01*
X9095238Y-18833333D01*
X9000000Y-18785714D01*
X8904761Y-18785714D01*
X8571428Y-19357142D02*
X8523809Y-19404761D01*
X8571428Y-19452380D01*
X8619047Y-19404761D01*
X8571428Y-19357142D01*
X8571428Y-19452380D01*
X8190476Y-18785714D02*
X7952380Y-19452380D01*
X7714285Y-18785714D01*
X7333333Y-19452380D02*
X7333333Y-18785714D01*
X7333333Y-18452380D02*
X7380952Y-18500000D01*
X7333333Y-18547619D01*
X7285714Y-18500000D01*
X7333333Y-18452380D01*
X7333333Y-18547619D01*
X6857142Y-18785714D02*
X6857142Y-19452380D01*
X6857142Y-18880952D02*
X6809523Y-18833333D01*
X6714285Y-18785714D01*
X6571428Y-18785714D01*
X6476190Y-18833333D01*
X6428571Y-18928571D01*
X6428571Y-19452380D01*
X5809523Y-19452380D02*
X5904761Y-19404761D01*
X5952380Y-19357142D01*
X6000000Y-19261904D01*
X6000000Y-18976190D01*
X5952380Y-18880952D01*
X5904761Y-18833333D01*
X5809523Y-18785714D01*
X5666666Y-18785714D01*
X5571428Y-18833333D01*
X5523809Y-18880952D01*
X5476190Y-18976190D01*
X5476190Y-19261904D01*
X5523809Y-19357142D01*
X5571428Y-19404761D01*
X5666666Y-19452380D01*
X5809523Y-19452380D01*
X4619047Y-19452380D02*
X4619047Y-18452380D01*
X4619047Y-19404761D02*
X4714285Y-19452380D01*
X4904761Y-19452380D01*
X5000000Y-19404761D01*
X5047619Y-19357142D01*
X5095238Y-19261904D01*
X5095238Y-18976190D01*
X5047619Y-18880952D01*
X5000000Y-18833333D01*
X4904761Y-18785714D01*
X4714285Y-18785714D01*
X4619047Y-18833333D01*
D11*
X11410000Y-5240000D02*
X11410000Y-6500000D01*
X11410000Y-12060000D02*
X11410000Y-10800000D01*
X7650000Y-5240000D02*
X11410000Y-5240000D01*
X5400000Y-12060000D02*
X11410000Y-12060000D01*
X12700000Y-3050000D02*
X13300000Y-3050000D01*
X12000000Y-950000D02*
X12000000Y-2350000D01*
X13300000Y-250000D02*
X12700000Y-250000D01*
X14000000Y-2350000D02*
X14000000Y-950000D01*
X13300000Y-3050000D02*
G75*
G03*
X14000000Y-2350000I0J700000D01*
G01*
X12000000Y-2350000D02*
G75*
G03*
X12700000Y-3050000I700000J0D01*
G01*
X12700000Y-250000D02*
G75*
G03*
X12000000Y-950000I0J-700000D01*
G01*
X14000000Y-950000D02*
G75*
G03*
X13300000Y-250000I-700000J0D01*
G01*
X5200000Y-3050000D02*
X5800000Y-3050000D01*
X4500000Y-950000D02*
X4500000Y-2350000D01*
X5800000Y-250000D02*
X5200000Y-250000D01*
X6500000Y-2350000D02*
X6500000Y-950000D01*
X5800000Y-3050000D02*
G75*
G03*
X6500000Y-2350000I0J700000D01*
G01*
X4500000Y-2350000D02*
G75*
G03*
X5200000Y-3050000I700000J0D01*
G01*
X5200000Y-250000D02*
G75*
G03*
X4500000Y-950000I0J-700000D01*
G01*
X6500000Y-950000D02*
G75*
G03*
X5800000Y-250000I-700000J0D01*
G01*
X19360000Y1180000D02*
X18030000Y1180000D01*
X19360000Y-150000D02*
X19360000Y1180000D01*
X19360000Y-1420000D02*
X16700000Y-1420000D01*
X16700000Y-1420000D02*
X16700000Y-19260000D01*
X19360000Y-1420000D02*
X19360000Y-19260000D01*
X19360000Y-19260000D02*
X16700000Y-19260000D01*
X1580000Y-19260000D02*
X-1080000Y-19260000D01*
X1580000Y-1420000D02*
X1580000Y-19260000D01*
X-1080000Y-1420000D02*
X-1080000Y-19260000D01*
X1580000Y-1420000D02*
X-1080000Y-1420000D01*
X1580000Y-150000D02*
X1580000Y1180000D01*
X1580000Y1180000D02*
X250000Y1180000D01*
X9758578Y-12940000D02*
X9241422Y-12940000D01*
X9758578Y-14360000D02*
X9241422Y-14360000D01*
X9758578Y-2940000D02*
X9241422Y-2940000D01*
X9758578Y-4360000D02*
X9241422Y-4360000D01*
D10*
X12578571Y-11957142D02*
X12092857Y-11957142D01*
X12035714Y-11928571D01*
X12007142Y-11900000D01*
X11978571Y-11842857D01*
X11978571Y-11728571D01*
X12007142Y-11671428D01*
X12035714Y-11642857D01*
X12092857Y-11614285D01*
X12578571Y-11614285D01*
X11978571Y-11014285D02*
X11978571Y-11357142D01*
X11978571Y-11185714D02*
X12578571Y-11185714D01*
X12492857Y-11242857D01*
X12435714Y-11300000D01*
X12407142Y-11357142D01*
X11071428Y-1150000D02*
X11500000Y-1150000D01*
X11585714Y-1121428D01*
X11642857Y-1064285D01*
X11671428Y-978571D01*
X11671428Y-921428D01*
X11671428Y-1435714D02*
X11071428Y-1435714D01*
X11071428Y-1664285D01*
X11100000Y-1721428D01*
X11128571Y-1750000D01*
X11185714Y-1778571D01*
X11271428Y-1778571D01*
X11328571Y-1750000D01*
X11357142Y-1721428D01*
X11385714Y-1664285D01*
X11385714Y-1435714D01*
X11128571Y-2007142D02*
X11100000Y-2035714D01*
X11071428Y-2092857D01*
X11071428Y-2235714D01*
X11100000Y-2292857D01*
X11128571Y-2321428D01*
X11185714Y-2350000D01*
X11242857Y-2350000D01*
X11328571Y-2321428D01*
X11671428Y-1978571D01*
X11671428Y-2350000D01*
X6971428Y-1150000D02*
X7400000Y-1150000D01*
X7485714Y-1121428D01*
X7542857Y-1064285D01*
X7571428Y-978571D01*
X7571428Y-921428D01*
X7571428Y-1435714D02*
X6971428Y-1435714D01*
X6971428Y-1664285D01*
X7000000Y-1721428D01*
X7028571Y-1750000D01*
X7085714Y-1778571D01*
X7171428Y-1778571D01*
X7228571Y-1750000D01*
X7257142Y-1721428D01*
X7285714Y-1664285D01*
X7285714Y-1435714D01*
X7571428Y-2350000D02*
X7571428Y-2007142D01*
X7571428Y-2178571D02*
X6971428Y-2178571D01*
X7057142Y-2121428D01*
X7114285Y-2064285D01*
X7142857Y-2007142D01*
X16200000Y78571D02*
X16200000Y-350000D01*
X16228571Y-435714D01*
X16285714Y-492857D01*
X16371428Y-521428D01*
X16428571Y-521428D01*
X15942857Y21428D02*
X15914285Y50000D01*
X15857142Y78571D01*
X15714285Y78571D01*
X15657142Y50000D01*
X15628571Y21428D01*
X15600000Y-35714D01*
X15600000Y-92857D01*
X15628571Y-178571D01*
X15971428Y-521428D01*
X15600000Y-521428D01*
X2450000Y78571D02*
X2450000Y-350000D01*
X2478571Y-435714D01*
X2535714Y-492857D01*
X2621428Y-521428D01*
X2678571Y-521428D01*
X1850000Y-521428D02*
X2192857Y-521428D01*
X2021428Y-521428D02*
X2021428Y78571D01*
X2078571Y-7142D01*
X2135714Y-64285D01*
X2192857Y-92857D01*
X9600000Y-15214285D02*
X9628571Y-15242857D01*
X9714285Y-15271428D01*
X9771428Y-15271428D01*
X9857142Y-15242857D01*
X9914285Y-15185714D01*
X9942857Y-15128571D01*
X9971428Y-15014285D01*
X9971428Y-14928571D01*
X9942857Y-14814285D01*
X9914285Y-14757142D01*
X9857142Y-14700000D01*
X9771428Y-14671428D01*
X9714285Y-14671428D01*
X9628571Y-14700000D01*
X9600000Y-14728571D01*
X9371428Y-14728571D02*
X9342857Y-14700000D01*
X9285714Y-14671428D01*
X9142857Y-14671428D01*
X9085714Y-14700000D01*
X9057142Y-14728571D01*
X9028571Y-14785714D01*
X9028571Y-14842857D01*
X9057142Y-14928571D01*
X9400000Y-15271428D01*
X9028571Y-15271428D01*
X9600000Y-2614285D02*
X9628571Y-2642857D01*
X9714285Y-2671428D01*
X9771428Y-2671428D01*
X9857142Y-2642857D01*
X9914285Y-2585714D01*
X9942857Y-2528571D01*
X9971428Y-2414285D01*
X9971428Y-2328571D01*
X9942857Y-2214285D01*
X9914285Y-2157142D01*
X9857142Y-2100000D01*
X9771428Y-2071428D01*
X9714285Y-2071428D01*
X9628571Y-2100000D01*
X9600000Y-2128571D01*
X9028571Y-2671428D02*
X9371428Y-2671428D01*
X9200000Y-2671428D02*
X9200000Y-2071428D01*
X9257142Y-2157142D01*
X9314285Y-2214285D01*
X9371428Y-2242857D01*
M02*
