G04 #@! TF.GenerationSoftware,KiCad,Pcbnew,(5.1.9)-1*
G04 #@! TF.CreationDate,2021-04-25T10:49:25+05:30*
G04 #@! TF.ProjectId,LOGIC LEVEL SHIFTER,4c4f4749-4320-44c4-9556-454c20534849,rev?*
G04 #@! TF.SameCoordinates,Original*
G04 #@! TF.FileFunction,Legend,Top*
G04 #@! TF.FilePolarity,Positive*
%FSLAX46Y46*%
G04 Gerber Fmt 4.6, Leading zero omitted, Abs format (unit mm)*
G04 Created by KiCad (PCBNEW (5.1.9)-1) date 2021-04-25 10:49:25*
%MOMM*%
%LPD*%
G01*
G04 APERTURE LIST*
%ADD10C,0.100000*%
%ADD11C,0.120000*%
%ADD12C,0.203200*%
%ADD13C,0.150000*%
G04 APERTURE END LIST*
D10*
X19871428Y-221428D02*
X19871428Y-507142D01*
X19271428Y-507142D01*
X19271428Y-107142D02*
X19871428Y92857D01*
X19271428Y292857D01*
X-1591428Y278571D02*
X-991428Y278571D01*
X-1277142Y278571D02*
X-1277142Y-64285D01*
X-1591428Y-64285D02*
X-991428Y-64285D01*
X-991428Y-264285D02*
X-1591428Y-464285D01*
X-991428Y-664285D01*
X-1020000Y-17472857D02*
X-991428Y-17415714D01*
X-991428Y-17330000D01*
X-1020000Y-17244285D01*
X-1077142Y-17187142D01*
X-1134285Y-17158571D01*
X-1248571Y-17130000D01*
X-1334285Y-17130000D01*
X-1448571Y-17158571D01*
X-1505714Y-17187142D01*
X-1562857Y-17244285D01*
X-1591428Y-17330000D01*
X-1591428Y-17387142D01*
X-1562857Y-17472857D01*
X-1534285Y-17501428D01*
X-1334285Y-17501428D01*
X-1334285Y-17387142D01*
X-1591428Y-17758571D02*
X-991428Y-17758571D01*
X-1591428Y-18101428D01*
X-991428Y-18101428D01*
X-1591428Y-18387142D02*
X-991428Y-18387142D01*
X-991428Y-18530000D01*
X-1020000Y-18615714D01*
X-1077142Y-18672857D01*
X-1134285Y-18701428D01*
X-1248571Y-18730000D01*
X-1334285Y-18730000D01*
X-1448571Y-18701428D01*
X-1505714Y-18672857D01*
X-1562857Y-18615714D01*
X-1591428Y-18530000D01*
X-1591428Y-18387142D01*
X-1591428Y-14675714D02*
X-991428Y-14675714D01*
X-1277142Y-14675714D02*
X-1277142Y-15018571D01*
X-1591428Y-15018571D02*
X-991428Y-15018571D01*
X-991428Y-15218571D02*
X-1591428Y-15418571D01*
X-991428Y-15618571D01*
X-991428Y-16075714D02*
X-991428Y-15961428D01*
X-1020000Y-15904285D01*
X-1048571Y-15875714D01*
X-1134285Y-15818571D01*
X-1248571Y-15790000D01*
X-1477142Y-15790000D01*
X-1534285Y-15818571D01*
X-1562857Y-15847142D01*
X-1591428Y-15904285D01*
X-1591428Y-16018571D01*
X-1562857Y-16075714D01*
X-1534285Y-16104285D01*
X-1477142Y-16132857D01*
X-1334285Y-16132857D01*
X-1277142Y-16104285D01*
X-1248571Y-16075714D01*
X-1220000Y-16018571D01*
X-1220000Y-15904285D01*
X-1248571Y-15847142D01*
X-1277142Y-15818571D01*
X-1334285Y-15790000D01*
X-1591428Y-12135714D02*
X-991428Y-12135714D01*
X-1277142Y-12135714D02*
X-1277142Y-12478571D01*
X-1591428Y-12478571D02*
X-991428Y-12478571D01*
X-991428Y-12678571D02*
X-1591428Y-12878571D01*
X-991428Y-13078571D01*
X-991428Y-13564285D02*
X-991428Y-13278571D01*
X-1277142Y-13250000D01*
X-1248571Y-13278571D01*
X-1220000Y-13335714D01*
X-1220000Y-13478571D01*
X-1248571Y-13535714D01*
X-1277142Y-13564285D01*
X-1334285Y-13592857D01*
X-1477142Y-13592857D01*
X-1534285Y-13564285D01*
X-1562857Y-13535714D01*
X-1591428Y-13478571D01*
X-1591428Y-13335714D01*
X-1562857Y-13278571D01*
X-1534285Y-13250000D01*
X-1591428Y-9595714D02*
X-991428Y-9595714D01*
X-1277142Y-9595714D02*
X-1277142Y-9938571D01*
X-1591428Y-9938571D02*
X-991428Y-9938571D01*
X-991428Y-10138571D02*
X-1591428Y-10338571D01*
X-991428Y-10538571D01*
X-1191428Y-10995714D02*
X-1591428Y-10995714D01*
X-962857Y-10852857D02*
X-1391428Y-10710000D01*
X-1391428Y-11081428D01*
X-1591428Y-7055714D02*
X-991428Y-7055714D01*
X-1277142Y-7055714D02*
X-1277142Y-7398571D01*
X-1591428Y-7398571D02*
X-991428Y-7398571D01*
X-991428Y-7598571D02*
X-1591428Y-7798571D01*
X-991428Y-7998571D01*
X-991428Y-8141428D02*
X-991428Y-8512857D01*
X-1220000Y-8312857D01*
X-1220000Y-8398571D01*
X-1248571Y-8455714D01*
X-1277142Y-8484285D01*
X-1334285Y-8512857D01*
X-1477142Y-8512857D01*
X-1534285Y-8484285D01*
X-1562857Y-8455714D01*
X-1591428Y-8398571D01*
X-1591428Y-8227142D01*
X-1562857Y-8170000D01*
X-1534285Y-8141428D01*
X-1591428Y-4515714D02*
X-991428Y-4515714D01*
X-1277142Y-4515714D02*
X-1277142Y-4858571D01*
X-1591428Y-4858571D02*
X-991428Y-4858571D01*
X-991428Y-5058571D02*
X-1591428Y-5258571D01*
X-991428Y-5458571D01*
X-1048571Y-5630000D02*
X-1020000Y-5658571D01*
X-991428Y-5715714D01*
X-991428Y-5858571D01*
X-1020000Y-5915714D01*
X-1048571Y-5944285D01*
X-1105714Y-5972857D01*
X-1162857Y-5972857D01*
X-1248571Y-5944285D01*
X-1591428Y-5601428D01*
X-1591428Y-5972857D01*
X-1591428Y-1975714D02*
X-991428Y-1975714D01*
X-1277142Y-1975714D02*
X-1277142Y-2318571D01*
X-1591428Y-2318571D02*
X-991428Y-2318571D01*
X-991428Y-2518571D02*
X-1591428Y-2718571D01*
X-991428Y-2918571D01*
X-1591428Y-3432857D02*
X-1591428Y-3090000D01*
X-1591428Y-3261428D02*
X-991428Y-3261428D01*
X-1077142Y-3204285D01*
X-1134285Y-3147142D01*
X-1162857Y-3090000D01*
X19300000Y-18387142D02*
X19271428Y-18444285D01*
X19271428Y-18530000D01*
X19300000Y-18615714D01*
X19357142Y-18672857D01*
X19414285Y-18701428D01*
X19528571Y-18730000D01*
X19614285Y-18730000D01*
X19728571Y-18701428D01*
X19785714Y-18672857D01*
X19842857Y-18615714D01*
X19871428Y-18530000D01*
X19871428Y-18472857D01*
X19842857Y-18387142D01*
X19814285Y-18358571D01*
X19614285Y-18358571D01*
X19614285Y-18472857D01*
X19871428Y-18101428D02*
X19271428Y-18101428D01*
X19871428Y-17758571D01*
X19271428Y-17758571D01*
X19871428Y-17472857D02*
X19271428Y-17472857D01*
X19271428Y-17330000D01*
X19300000Y-17244285D01*
X19357142Y-17187142D01*
X19414285Y-17158571D01*
X19528571Y-17130000D01*
X19614285Y-17130000D01*
X19728571Y-17158571D01*
X19785714Y-17187142D01*
X19842857Y-17244285D01*
X19871428Y-17330000D01*
X19871428Y-17472857D01*
X19871428Y-15747142D02*
X19871428Y-16032857D01*
X19271428Y-16032857D01*
X19271428Y-15632857D02*
X19871428Y-15432857D01*
X19271428Y-15232857D01*
X19271428Y-14775714D02*
X19271428Y-14890000D01*
X19300000Y-14947142D01*
X19328571Y-14975714D01*
X19414285Y-15032857D01*
X19528571Y-15061428D01*
X19757142Y-15061428D01*
X19814285Y-15032857D01*
X19842857Y-15004285D01*
X19871428Y-14947142D01*
X19871428Y-14832857D01*
X19842857Y-14775714D01*
X19814285Y-14747142D01*
X19757142Y-14718571D01*
X19614285Y-14718571D01*
X19557142Y-14747142D01*
X19528571Y-14775714D01*
X19500000Y-14832857D01*
X19500000Y-14947142D01*
X19528571Y-15004285D01*
X19557142Y-15032857D01*
X19614285Y-15061428D01*
X19871428Y-13207142D02*
X19871428Y-13492857D01*
X19271428Y-13492857D01*
X19271428Y-13092857D02*
X19871428Y-12892857D01*
X19271428Y-12692857D01*
X19271428Y-12207142D02*
X19271428Y-12492857D01*
X19557142Y-12521428D01*
X19528571Y-12492857D01*
X19500000Y-12435714D01*
X19500000Y-12292857D01*
X19528571Y-12235714D01*
X19557142Y-12207142D01*
X19614285Y-12178571D01*
X19757142Y-12178571D01*
X19814285Y-12207142D01*
X19842857Y-12235714D01*
X19871428Y-12292857D01*
X19871428Y-12435714D01*
X19842857Y-12492857D01*
X19814285Y-12521428D01*
X19871428Y-10667142D02*
X19871428Y-10952857D01*
X19271428Y-10952857D01*
X19271428Y-10552857D02*
X19871428Y-10352857D01*
X19271428Y-10152857D01*
X19471428Y-9695714D02*
X19871428Y-9695714D01*
X19242857Y-9838571D02*
X19671428Y-9981428D01*
X19671428Y-9610000D01*
X19871428Y-8127142D02*
X19871428Y-8412857D01*
X19271428Y-8412857D01*
X19271428Y-8012857D02*
X19871428Y-7812857D01*
X19271428Y-7612857D01*
X19271428Y-7470000D02*
X19271428Y-7098571D01*
X19500000Y-7298571D01*
X19500000Y-7212857D01*
X19528571Y-7155714D01*
X19557142Y-7127142D01*
X19614285Y-7098571D01*
X19757142Y-7098571D01*
X19814285Y-7127142D01*
X19842857Y-7155714D01*
X19871428Y-7212857D01*
X19871428Y-7384285D01*
X19842857Y-7441428D01*
X19814285Y-7470000D01*
X19871428Y-5587142D02*
X19871428Y-5872857D01*
X19271428Y-5872857D01*
X19271428Y-5472857D02*
X19871428Y-5272857D01*
X19271428Y-5072857D01*
X19328571Y-4901428D02*
X19300000Y-4872857D01*
X19271428Y-4815714D01*
X19271428Y-4672857D01*
X19300000Y-4615714D01*
X19328571Y-4587142D01*
X19385714Y-4558571D01*
X19442857Y-4558571D01*
X19528571Y-4587142D01*
X19871428Y-4930000D01*
X19871428Y-4558571D01*
X19871428Y-3047142D02*
X19871428Y-3332857D01*
X19271428Y-3332857D01*
X19271428Y-2932857D02*
X19871428Y-2732857D01*
X19271428Y-2532857D01*
X19871428Y-2018571D02*
X19871428Y-2361428D01*
X19871428Y-2190000D02*
X19271428Y-2190000D01*
X19357142Y-2247142D01*
X19414285Y-2304285D01*
X19442857Y-2361428D01*
D11*
X5321078Y-360000D02*
X4803922Y-360000D01*
X5321078Y1060000D02*
X4803922Y1060000D01*
X4241422Y-16110000D02*
X4758578Y-16110000D01*
X4241422Y-14690000D02*
X4758578Y-14690000D01*
X4241422Y-9590000D02*
X4758578Y-9590000D01*
X4241422Y-11010000D02*
X4758578Y-11010000D01*
X4241422Y-4540000D02*
X4758578Y-4540000D01*
X4241422Y-5960000D02*
X4758578Y-5960000D01*
X13741422Y-14690000D02*
X14258578Y-14690000D01*
X13741422Y-16110000D02*
X14258578Y-16110000D01*
X13741422Y-9590000D02*
X14258578Y-9590000D01*
X13741422Y-11010000D02*
X14258578Y-11010000D01*
X13741422Y-4540000D02*
X14258578Y-4540000D01*
X13741422Y-5960000D02*
X14258578Y-5960000D01*
X4241422Y-12140000D02*
X4758578Y-12140000D01*
X4241422Y-13560000D02*
X4758578Y-13560000D01*
X4241422Y-7040000D02*
X4758578Y-7040000D01*
X4241422Y-8460000D02*
X4758578Y-8460000D01*
X4241422Y-1990000D02*
X4758578Y-1990000D01*
X4241422Y-3410000D02*
X4758578Y-3410000D01*
X13741422Y-12140000D02*
X14258578Y-12140000D01*
X13741422Y-13560000D02*
X14258578Y-13560000D01*
X13741422Y-7040000D02*
X14258578Y-7040000D01*
X13741422Y-8460000D02*
X14258578Y-8460000D01*
X13741422Y-1990000D02*
X14258578Y-1990000D01*
X13741422Y-3410000D02*
X14258578Y-3410000D01*
D12*
X8511500Y-18047560D02*
X8511500Y-18649540D01*
X8511500Y-18649540D02*
X9309060Y-18649540D01*
X8511500Y-16452440D02*
X8511500Y-15850460D01*
X8511500Y-15850460D02*
X9309060Y-15850460D01*
X8511500Y-11247560D02*
X8511500Y-11849540D01*
X8511500Y-11849540D02*
X9309060Y-11849540D01*
X8511500Y-9652440D02*
X8511500Y-9050460D01*
X8511500Y-9050460D02*
X9309060Y-9050460D01*
X8511500Y-4447560D02*
X8511500Y-5049540D01*
X8511500Y-5049540D02*
X9309060Y-5049540D01*
X8511500Y-2852440D02*
X8511500Y-2250460D01*
X8511500Y-2250460D02*
X9309060Y-2250460D01*
X8511500Y-14647560D02*
X8511500Y-15249540D01*
X8511500Y-15249540D02*
X9309060Y-15249540D01*
X8511500Y-13052440D02*
X8511500Y-12450460D01*
X8511500Y-12450460D02*
X9309060Y-12450460D01*
X8511500Y-7847560D02*
X8511500Y-8449540D01*
X8511500Y-8449540D02*
X9309060Y-8449540D01*
X8511500Y-6252440D02*
X8511500Y-5650460D01*
X8511500Y-5650460D02*
X9309060Y-5650460D01*
X8511500Y-1047560D02*
X8511500Y-1649540D01*
X8511500Y-1649540D02*
X9309060Y-1649540D01*
X8511500Y547560D02*
X8511500Y1149540D01*
X8511500Y1149540D02*
X9309060Y1149540D01*
D11*
X12500000Y-610000D02*
X15185000Y-610000D01*
X15185000Y-610000D02*
X15185000Y1310000D01*
X15185000Y1310000D02*
X12500000Y1310000D01*
D13*
X4900000Y-1271428D02*
X4700000Y-985714D01*
X4557142Y-1271428D02*
X4557142Y-671428D01*
X4785714Y-671428D01*
X4842857Y-700000D01*
X4871428Y-728571D01*
X4900000Y-785714D01*
X4900000Y-871428D01*
X4871428Y-928571D01*
X4842857Y-957142D01*
X4785714Y-985714D01*
X4557142Y-985714D01*
X5471428Y-1271428D02*
X5128571Y-1271428D01*
X5300000Y-1271428D02*
X5300000Y-671428D01*
X5242857Y-757142D01*
X5185714Y-814285D01*
X5128571Y-842857D01*
X4114285Y-17021428D02*
X3914285Y-16735714D01*
X3771428Y-17021428D02*
X3771428Y-16421428D01*
X4000000Y-16421428D01*
X4057142Y-16450000D01*
X4085714Y-16478571D01*
X4114285Y-16535714D01*
X4114285Y-16621428D01*
X4085714Y-16678571D01*
X4057142Y-16707142D01*
X4000000Y-16735714D01*
X3771428Y-16735714D01*
X4685714Y-17021428D02*
X4342857Y-17021428D01*
X4514285Y-17021428D02*
X4514285Y-16421428D01*
X4457142Y-16507142D01*
X4400000Y-16564285D01*
X4342857Y-16592857D01*
X4885714Y-16421428D02*
X5257142Y-16421428D01*
X5057142Y-16650000D01*
X5142857Y-16650000D01*
X5200000Y-16678571D01*
X5228571Y-16707142D01*
X5257142Y-16764285D01*
X5257142Y-16907142D01*
X5228571Y-16964285D01*
X5200000Y-16992857D01*
X5142857Y-17021428D01*
X4971428Y-17021428D01*
X4914285Y-16992857D01*
X4885714Y-16964285D01*
X4400000Y-11871428D02*
X4200000Y-11585714D01*
X4057142Y-11871428D02*
X4057142Y-11271428D01*
X4285714Y-11271428D01*
X4342857Y-11300000D01*
X4371428Y-11328571D01*
X4400000Y-11385714D01*
X4400000Y-11471428D01*
X4371428Y-11528571D01*
X4342857Y-11557142D01*
X4285714Y-11585714D01*
X4057142Y-11585714D01*
X4685714Y-11871428D02*
X4800000Y-11871428D01*
X4857142Y-11842857D01*
X4885714Y-11814285D01*
X4942857Y-11728571D01*
X4971428Y-11614285D01*
X4971428Y-11385714D01*
X4942857Y-11328571D01*
X4914285Y-11300000D01*
X4857142Y-11271428D01*
X4742857Y-11271428D01*
X4685714Y-11300000D01*
X4657142Y-11328571D01*
X4628571Y-11385714D01*
X4628571Y-11528571D01*
X4657142Y-11585714D01*
X4685714Y-11614285D01*
X4742857Y-11642857D01*
X4857142Y-11642857D01*
X4914285Y-11614285D01*
X4942857Y-11585714D01*
X4971428Y-11528571D01*
X4400000Y-6871428D02*
X4200000Y-6585714D01*
X4057142Y-6871428D02*
X4057142Y-6271428D01*
X4285714Y-6271428D01*
X4342857Y-6300000D01*
X4371428Y-6328571D01*
X4400000Y-6385714D01*
X4400000Y-6471428D01*
X4371428Y-6528571D01*
X4342857Y-6557142D01*
X4285714Y-6585714D01*
X4057142Y-6585714D01*
X4942857Y-6271428D02*
X4657142Y-6271428D01*
X4628571Y-6557142D01*
X4657142Y-6528571D01*
X4714285Y-6500000D01*
X4857142Y-6500000D01*
X4914285Y-6528571D01*
X4942857Y-6557142D01*
X4971428Y-6614285D01*
X4971428Y-6757142D01*
X4942857Y-6814285D01*
X4914285Y-6842857D01*
X4857142Y-6871428D01*
X4714285Y-6871428D01*
X4657142Y-6842857D01*
X4628571Y-6814285D01*
X13614285Y-17071428D02*
X13414285Y-16785714D01*
X13271428Y-17071428D02*
X13271428Y-16471428D01*
X13500000Y-16471428D01*
X13557142Y-16500000D01*
X13585714Y-16528571D01*
X13614285Y-16585714D01*
X13614285Y-16671428D01*
X13585714Y-16728571D01*
X13557142Y-16757142D01*
X13500000Y-16785714D01*
X13271428Y-16785714D01*
X14185714Y-17071428D02*
X13842857Y-17071428D01*
X14014285Y-17071428D02*
X14014285Y-16471428D01*
X13957142Y-16557142D01*
X13900000Y-16614285D01*
X13842857Y-16642857D01*
X14414285Y-16528571D02*
X14442857Y-16500000D01*
X14500000Y-16471428D01*
X14642857Y-16471428D01*
X14700000Y-16500000D01*
X14728571Y-16528571D01*
X14757142Y-16585714D01*
X14757142Y-16642857D01*
X14728571Y-16728571D01*
X14385714Y-17071428D01*
X14757142Y-17071428D01*
X13900000Y-11871428D02*
X13700000Y-11585714D01*
X13557142Y-11871428D02*
X13557142Y-11271428D01*
X13785714Y-11271428D01*
X13842857Y-11300000D01*
X13871428Y-11328571D01*
X13900000Y-11385714D01*
X13900000Y-11471428D01*
X13871428Y-11528571D01*
X13842857Y-11557142D01*
X13785714Y-11585714D01*
X13557142Y-11585714D01*
X14242857Y-11528571D02*
X14185714Y-11500000D01*
X14157142Y-11471428D01*
X14128571Y-11414285D01*
X14128571Y-11385714D01*
X14157142Y-11328571D01*
X14185714Y-11300000D01*
X14242857Y-11271428D01*
X14357142Y-11271428D01*
X14414285Y-11300000D01*
X14442857Y-11328571D01*
X14471428Y-11385714D01*
X14471428Y-11414285D01*
X14442857Y-11471428D01*
X14414285Y-11500000D01*
X14357142Y-11528571D01*
X14242857Y-11528571D01*
X14185714Y-11557142D01*
X14157142Y-11585714D01*
X14128571Y-11642857D01*
X14128571Y-11757142D01*
X14157142Y-11814285D01*
X14185714Y-11842857D01*
X14242857Y-11871428D01*
X14357142Y-11871428D01*
X14414285Y-11842857D01*
X14442857Y-11814285D01*
X14471428Y-11757142D01*
X14471428Y-11642857D01*
X14442857Y-11585714D01*
X14414285Y-11557142D01*
X14357142Y-11528571D01*
X13900000Y-6871428D02*
X13700000Y-6585714D01*
X13557142Y-6871428D02*
X13557142Y-6271428D01*
X13785714Y-6271428D01*
X13842857Y-6300000D01*
X13871428Y-6328571D01*
X13900000Y-6385714D01*
X13900000Y-6471428D01*
X13871428Y-6528571D01*
X13842857Y-6557142D01*
X13785714Y-6585714D01*
X13557142Y-6585714D01*
X14414285Y-6471428D02*
X14414285Y-6871428D01*
X14271428Y-6242857D02*
X14128571Y-6671428D01*
X14500000Y-6671428D01*
X4114285Y-14471428D02*
X3914285Y-14185714D01*
X3771428Y-14471428D02*
X3771428Y-13871428D01*
X4000000Y-13871428D01*
X4057142Y-13900000D01*
X4085714Y-13928571D01*
X4114285Y-13985714D01*
X4114285Y-14071428D01*
X4085714Y-14128571D01*
X4057142Y-14157142D01*
X4000000Y-14185714D01*
X3771428Y-14185714D01*
X4685714Y-14471428D02*
X4342857Y-14471428D01*
X4514285Y-14471428D02*
X4514285Y-13871428D01*
X4457142Y-13957142D01*
X4400000Y-14014285D01*
X4342857Y-14042857D01*
X5257142Y-14471428D02*
X4914285Y-14471428D01*
X5085714Y-14471428D02*
X5085714Y-13871428D01*
X5028571Y-13957142D01*
X4971428Y-14014285D01*
X4914285Y-14042857D01*
X4400000Y-9271428D02*
X4200000Y-8985714D01*
X4057142Y-9271428D02*
X4057142Y-8671428D01*
X4285714Y-8671428D01*
X4342857Y-8700000D01*
X4371428Y-8728571D01*
X4400000Y-8785714D01*
X4400000Y-8871428D01*
X4371428Y-8928571D01*
X4342857Y-8957142D01*
X4285714Y-8985714D01*
X4057142Y-8985714D01*
X4600000Y-8671428D02*
X5000000Y-8671428D01*
X4742857Y-9271428D01*
X4400000Y-4271428D02*
X4200000Y-3985714D01*
X4057142Y-4271428D02*
X4057142Y-3671428D01*
X4285714Y-3671428D01*
X4342857Y-3700000D01*
X4371428Y-3728571D01*
X4400000Y-3785714D01*
X4400000Y-3871428D01*
X4371428Y-3928571D01*
X4342857Y-3957142D01*
X4285714Y-3985714D01*
X4057142Y-3985714D01*
X4600000Y-3671428D02*
X4971428Y-3671428D01*
X4771428Y-3900000D01*
X4857142Y-3900000D01*
X4914285Y-3928571D01*
X4942857Y-3957142D01*
X4971428Y-4014285D01*
X4971428Y-4157142D01*
X4942857Y-4214285D01*
X4914285Y-4242857D01*
X4857142Y-4271428D01*
X4685714Y-4271428D01*
X4628571Y-4242857D01*
X4600000Y-4214285D01*
X13614285Y-14471428D02*
X13414285Y-14185714D01*
X13271428Y-14471428D02*
X13271428Y-13871428D01*
X13500000Y-13871428D01*
X13557142Y-13900000D01*
X13585714Y-13928571D01*
X13614285Y-13985714D01*
X13614285Y-14071428D01*
X13585714Y-14128571D01*
X13557142Y-14157142D01*
X13500000Y-14185714D01*
X13271428Y-14185714D01*
X14185714Y-14471428D02*
X13842857Y-14471428D01*
X14014285Y-14471428D02*
X14014285Y-13871428D01*
X13957142Y-13957142D01*
X13900000Y-14014285D01*
X13842857Y-14042857D01*
X14557142Y-13871428D02*
X14614285Y-13871428D01*
X14671428Y-13900000D01*
X14700000Y-13928571D01*
X14728571Y-13985714D01*
X14757142Y-14100000D01*
X14757142Y-14242857D01*
X14728571Y-14357142D01*
X14700000Y-14414285D01*
X14671428Y-14442857D01*
X14614285Y-14471428D01*
X14557142Y-14471428D01*
X14500000Y-14442857D01*
X14471428Y-14414285D01*
X14442857Y-14357142D01*
X14414285Y-14242857D01*
X14414285Y-14100000D01*
X14442857Y-13985714D01*
X14471428Y-13928571D01*
X14500000Y-13900000D01*
X14557142Y-13871428D01*
X13900000Y-9271428D02*
X13700000Y-8985714D01*
X13557142Y-9271428D02*
X13557142Y-8671428D01*
X13785714Y-8671428D01*
X13842857Y-8700000D01*
X13871428Y-8728571D01*
X13900000Y-8785714D01*
X13900000Y-8871428D01*
X13871428Y-8928571D01*
X13842857Y-8957142D01*
X13785714Y-8985714D01*
X13557142Y-8985714D01*
X14414285Y-8671428D02*
X14300000Y-8671428D01*
X14242857Y-8700000D01*
X14214285Y-8728571D01*
X14157142Y-8814285D01*
X14128571Y-8928571D01*
X14128571Y-9157142D01*
X14157142Y-9214285D01*
X14185714Y-9242857D01*
X14242857Y-9271428D01*
X14357142Y-9271428D01*
X14414285Y-9242857D01*
X14442857Y-9214285D01*
X14471428Y-9157142D01*
X14471428Y-9014285D01*
X14442857Y-8957142D01*
X14414285Y-8928571D01*
X14357142Y-8900000D01*
X14242857Y-8900000D01*
X14185714Y-8928571D01*
X14157142Y-8957142D01*
X14128571Y-9014285D01*
X13900000Y-4271428D02*
X13700000Y-3985714D01*
X13557142Y-4271428D02*
X13557142Y-3671428D01*
X13785714Y-3671428D01*
X13842857Y-3700000D01*
X13871428Y-3728571D01*
X13900000Y-3785714D01*
X13900000Y-3871428D01*
X13871428Y-3928571D01*
X13842857Y-3957142D01*
X13785714Y-3985714D01*
X13557142Y-3985714D01*
X14128571Y-3728571D02*
X14157142Y-3700000D01*
X14214285Y-3671428D01*
X14357142Y-3671428D01*
X14414285Y-3700000D01*
X14442857Y-3728571D01*
X14471428Y-3785714D01*
X14471428Y-3842857D01*
X14442857Y-3928571D01*
X14100000Y-4271428D01*
X14471428Y-4271428D01*
X11678571Y-17307142D02*
X11650000Y-17364285D01*
X11592857Y-17421428D01*
X11507142Y-17507142D01*
X11478571Y-17564285D01*
X11478571Y-17621428D01*
X11621428Y-17592857D02*
X11592857Y-17650000D01*
X11535714Y-17707142D01*
X11421428Y-17735714D01*
X11221428Y-17735714D01*
X11107142Y-17707142D01*
X11050000Y-17650000D01*
X11021428Y-17592857D01*
X11021428Y-17478571D01*
X11050000Y-17421428D01*
X11107142Y-17364285D01*
X11221428Y-17335714D01*
X11421428Y-17335714D01*
X11535714Y-17364285D01*
X11592857Y-17421428D01*
X11621428Y-17478571D01*
X11621428Y-17592857D01*
X11021428Y-16821428D02*
X11021428Y-16935714D01*
X11050000Y-16992857D01*
X11078571Y-17021428D01*
X11164285Y-17078571D01*
X11278571Y-17107142D01*
X11507142Y-17107142D01*
X11564285Y-17078571D01*
X11592857Y-17050000D01*
X11621428Y-16992857D01*
X11621428Y-16878571D01*
X11592857Y-16821428D01*
X11564285Y-16792857D01*
X11507142Y-16764285D01*
X11364285Y-16764285D01*
X11307142Y-16792857D01*
X11278571Y-16821428D01*
X11250000Y-16878571D01*
X11250000Y-16992857D01*
X11278571Y-17050000D01*
X11307142Y-17078571D01*
X11364285Y-17107142D01*
X11678571Y-10507142D02*
X11650000Y-10564285D01*
X11592857Y-10621428D01*
X11507142Y-10707142D01*
X11478571Y-10764285D01*
X11478571Y-10821428D01*
X11621428Y-10792857D02*
X11592857Y-10850000D01*
X11535714Y-10907142D01*
X11421428Y-10935714D01*
X11221428Y-10935714D01*
X11107142Y-10907142D01*
X11050000Y-10850000D01*
X11021428Y-10792857D01*
X11021428Y-10678571D01*
X11050000Y-10621428D01*
X11107142Y-10564285D01*
X11221428Y-10535714D01*
X11421428Y-10535714D01*
X11535714Y-10564285D01*
X11592857Y-10621428D01*
X11621428Y-10678571D01*
X11621428Y-10792857D01*
X11221428Y-10021428D02*
X11621428Y-10021428D01*
X10992857Y-10164285D02*
X11421428Y-10307142D01*
X11421428Y-9935714D01*
X11678571Y-3707142D02*
X11650000Y-3764285D01*
X11592857Y-3821428D01*
X11507142Y-3907142D01*
X11478571Y-3964285D01*
X11478571Y-4021428D01*
X11621428Y-3992857D02*
X11592857Y-4050000D01*
X11535714Y-4107142D01*
X11421428Y-4135714D01*
X11221428Y-4135714D01*
X11107142Y-4107142D01*
X11050000Y-4050000D01*
X11021428Y-3992857D01*
X11021428Y-3878571D01*
X11050000Y-3821428D01*
X11107142Y-3764285D01*
X11221428Y-3735714D01*
X11421428Y-3735714D01*
X11535714Y-3764285D01*
X11592857Y-3821428D01*
X11621428Y-3878571D01*
X11621428Y-3992857D01*
X11078571Y-3507142D02*
X11050000Y-3478571D01*
X11021428Y-3421428D01*
X11021428Y-3278571D01*
X11050000Y-3221428D01*
X11078571Y-3192857D01*
X11135714Y-3164285D01*
X11192857Y-3164285D01*
X11278571Y-3192857D01*
X11621428Y-3535714D01*
X11621428Y-3164285D01*
X11678571Y-13907142D02*
X11650000Y-13964285D01*
X11592857Y-14021428D01*
X11507142Y-14107142D01*
X11478571Y-14164285D01*
X11478571Y-14221428D01*
X11621428Y-14192857D02*
X11592857Y-14250000D01*
X11535714Y-14307142D01*
X11421428Y-14335714D01*
X11221428Y-14335714D01*
X11107142Y-14307142D01*
X11050000Y-14250000D01*
X11021428Y-14192857D01*
X11021428Y-14078571D01*
X11050000Y-14021428D01*
X11107142Y-13964285D01*
X11221428Y-13935714D01*
X11421428Y-13935714D01*
X11535714Y-13964285D01*
X11592857Y-14021428D01*
X11621428Y-14078571D01*
X11621428Y-14192857D01*
X11021428Y-13392857D02*
X11021428Y-13678571D01*
X11307142Y-13707142D01*
X11278571Y-13678571D01*
X11250000Y-13621428D01*
X11250000Y-13478571D01*
X11278571Y-13421428D01*
X11307142Y-13392857D01*
X11364285Y-13364285D01*
X11507142Y-13364285D01*
X11564285Y-13392857D01*
X11592857Y-13421428D01*
X11621428Y-13478571D01*
X11621428Y-13621428D01*
X11592857Y-13678571D01*
X11564285Y-13707142D01*
X11678571Y-7107142D02*
X11650000Y-7164285D01*
X11592857Y-7221428D01*
X11507142Y-7307142D01*
X11478571Y-7364285D01*
X11478571Y-7421428D01*
X11621428Y-7392857D02*
X11592857Y-7450000D01*
X11535714Y-7507142D01*
X11421428Y-7535714D01*
X11221428Y-7535714D01*
X11107142Y-7507142D01*
X11050000Y-7450000D01*
X11021428Y-7392857D01*
X11021428Y-7278571D01*
X11050000Y-7221428D01*
X11107142Y-7164285D01*
X11221428Y-7135714D01*
X11421428Y-7135714D01*
X11535714Y-7164285D01*
X11592857Y-7221428D01*
X11621428Y-7278571D01*
X11621428Y-7392857D01*
X11021428Y-6935714D02*
X11021428Y-6564285D01*
X11250000Y-6764285D01*
X11250000Y-6678571D01*
X11278571Y-6621428D01*
X11307142Y-6592857D01*
X11364285Y-6564285D01*
X11507142Y-6564285D01*
X11564285Y-6592857D01*
X11592857Y-6621428D01*
X11621428Y-6678571D01*
X11621428Y-6850000D01*
X11592857Y-6907142D01*
X11564285Y-6935714D01*
X11678571Y-307142D02*
X11650000Y-364285D01*
X11592857Y-421428D01*
X11507142Y-507142D01*
X11478571Y-564285D01*
X11478571Y-621428D01*
X11621428Y-592857D02*
X11592857Y-650000D01*
X11535714Y-707142D01*
X11421428Y-735714D01*
X11221428Y-735714D01*
X11107142Y-707142D01*
X11050000Y-650000D01*
X11021428Y-592857D01*
X11021428Y-478571D01*
X11050000Y-421428D01*
X11107142Y-364285D01*
X11221428Y-335714D01*
X11421428Y-335714D01*
X11535714Y-364285D01*
X11592857Y-421428D01*
X11621428Y-478571D01*
X11621428Y-592857D01*
X11621428Y235714D02*
X11621428Y-107142D01*
X11621428Y64285D02*
X11021428Y64285D01*
X11107142Y7142D01*
X11164285Y-50000D01*
X11192857Y-107142D01*
X13157142Y-1471428D02*
X13157142Y-871428D01*
X13300000Y-871428D01*
X13385714Y-900000D01*
X13442857Y-957142D01*
X13471428Y-1014285D01*
X13500000Y-1128571D01*
X13500000Y-1214285D01*
X13471428Y-1328571D01*
X13442857Y-1385714D01*
X13385714Y-1442857D01*
X13300000Y-1471428D01*
X13157142Y-1471428D01*
X14071428Y-1471428D02*
X13728571Y-1471428D01*
X13900000Y-1471428D02*
X13900000Y-871428D01*
X13842857Y-957142D01*
X13785714Y-1014285D01*
X13728571Y-1042857D01*
M02*
