G04 #@! TF.GenerationSoftware,KiCad,Pcbnew,(5.1.9)-1*
G04 #@! TF.CreationDate,2021-04-25T10:49:25+05:30*
G04 #@! TF.ProjectId,LOGIC LEVEL SHIFTER,4c4f4749-4320-44c4-9556-454c20534849,rev?*
G04 #@! TF.SameCoordinates,Original*
G04 #@! TF.FileFunction,Soldermask,Top*
G04 #@! TF.FilePolarity,Negative*
%FSLAX46Y46*%
G04 Gerber Fmt 4.6, Leading zero omitted, Abs format (unit mm)*
G04 Created by KiCad (PCBNEW (5.1.9)-1) date 2021-04-25 10:49:25*
%MOMM*%
%LPD*%
G01*
G04 APERTURE LIST*
%ADD10R,1.700000X1.700000*%
%ADD11O,1.700000X1.700000*%
G04 APERTURE END LIST*
G36*
G01*
X4612500Y806250D02*
X4612500Y-106250D01*
G75*
G02*
X4368750Y-350000I-243750J0D01*
G01*
X3881250Y-350000D01*
G75*
G02*
X3637500Y-106250I0J243750D01*
G01*
X3637500Y806250D01*
G75*
G02*
X3881250Y1050000I243750J0D01*
G01*
X4368750Y1050000D01*
G75*
G02*
X4612500Y806250I0J-243750D01*
G01*
G37*
G36*
G01*
X6487500Y806250D02*
X6487500Y-106250D01*
G75*
G02*
X6243750Y-350000I-243750J0D01*
G01*
X5756250Y-350000D01*
G75*
G02*
X5512500Y-106250I0J243750D01*
G01*
X5512500Y806250D01*
G75*
G02*
X5756250Y1050000I243750J0D01*
G01*
X6243750Y1050000D01*
G75*
G02*
X6487500Y806250I0J-243750D01*
G01*
G37*
G36*
G01*
X3075000Y-15856250D02*
X3075000Y-14943750D01*
G75*
G02*
X3318750Y-14700000I243750J0D01*
G01*
X3806250Y-14700000D01*
G75*
G02*
X4050000Y-14943750I0J-243750D01*
G01*
X4050000Y-15856250D01*
G75*
G02*
X3806250Y-16100000I-243750J0D01*
G01*
X3318750Y-16100000D01*
G75*
G02*
X3075000Y-15856250I0J243750D01*
G01*
G37*
G36*
G01*
X4950000Y-15856250D02*
X4950000Y-14943750D01*
G75*
G02*
X5193750Y-14700000I243750J0D01*
G01*
X5681250Y-14700000D01*
G75*
G02*
X5925000Y-14943750I0J-243750D01*
G01*
X5925000Y-15856250D01*
G75*
G02*
X5681250Y-16100000I-243750J0D01*
G01*
X5193750Y-16100000D01*
G75*
G02*
X4950000Y-15856250I0J243750D01*
G01*
G37*
G36*
G01*
X4950000Y-10756250D02*
X4950000Y-9843750D01*
G75*
G02*
X5193750Y-9600000I243750J0D01*
G01*
X5681250Y-9600000D01*
G75*
G02*
X5925000Y-9843750I0J-243750D01*
G01*
X5925000Y-10756250D01*
G75*
G02*
X5681250Y-11000000I-243750J0D01*
G01*
X5193750Y-11000000D01*
G75*
G02*
X4950000Y-10756250I0J243750D01*
G01*
G37*
G36*
G01*
X3075000Y-10756250D02*
X3075000Y-9843750D01*
G75*
G02*
X3318750Y-9600000I243750J0D01*
G01*
X3806250Y-9600000D01*
G75*
G02*
X4050000Y-9843750I0J-243750D01*
G01*
X4050000Y-10756250D01*
G75*
G02*
X3806250Y-11000000I-243750J0D01*
G01*
X3318750Y-11000000D01*
G75*
G02*
X3075000Y-10756250I0J243750D01*
G01*
G37*
G36*
G01*
X4950000Y-5706250D02*
X4950000Y-4793750D01*
G75*
G02*
X5193750Y-4550000I243750J0D01*
G01*
X5681250Y-4550000D01*
G75*
G02*
X5925000Y-4793750I0J-243750D01*
G01*
X5925000Y-5706250D01*
G75*
G02*
X5681250Y-5950000I-243750J0D01*
G01*
X5193750Y-5950000D01*
G75*
G02*
X4950000Y-5706250I0J243750D01*
G01*
G37*
G36*
G01*
X3075000Y-5706250D02*
X3075000Y-4793750D01*
G75*
G02*
X3318750Y-4550000I243750J0D01*
G01*
X3806250Y-4550000D01*
G75*
G02*
X4050000Y-4793750I0J-243750D01*
G01*
X4050000Y-5706250D01*
G75*
G02*
X3806250Y-5950000I-243750J0D01*
G01*
X3318750Y-5950000D01*
G75*
G02*
X3075000Y-5706250I0J243750D01*
G01*
G37*
G36*
G01*
X14450000Y-15856250D02*
X14450000Y-14943750D01*
G75*
G02*
X14693750Y-14700000I243750J0D01*
G01*
X15181250Y-14700000D01*
G75*
G02*
X15425000Y-14943750I0J-243750D01*
G01*
X15425000Y-15856250D01*
G75*
G02*
X15181250Y-16100000I-243750J0D01*
G01*
X14693750Y-16100000D01*
G75*
G02*
X14450000Y-15856250I0J243750D01*
G01*
G37*
G36*
G01*
X12575000Y-15856250D02*
X12575000Y-14943750D01*
G75*
G02*
X12818750Y-14700000I243750J0D01*
G01*
X13306250Y-14700000D01*
G75*
G02*
X13550000Y-14943750I0J-243750D01*
G01*
X13550000Y-15856250D01*
G75*
G02*
X13306250Y-16100000I-243750J0D01*
G01*
X12818750Y-16100000D01*
G75*
G02*
X12575000Y-15856250I0J243750D01*
G01*
G37*
G36*
G01*
X14450000Y-10756250D02*
X14450000Y-9843750D01*
G75*
G02*
X14693750Y-9600000I243750J0D01*
G01*
X15181250Y-9600000D01*
G75*
G02*
X15425000Y-9843750I0J-243750D01*
G01*
X15425000Y-10756250D01*
G75*
G02*
X15181250Y-11000000I-243750J0D01*
G01*
X14693750Y-11000000D01*
G75*
G02*
X14450000Y-10756250I0J243750D01*
G01*
G37*
G36*
G01*
X12575000Y-10756250D02*
X12575000Y-9843750D01*
G75*
G02*
X12818750Y-9600000I243750J0D01*
G01*
X13306250Y-9600000D01*
G75*
G02*
X13550000Y-9843750I0J-243750D01*
G01*
X13550000Y-10756250D01*
G75*
G02*
X13306250Y-11000000I-243750J0D01*
G01*
X12818750Y-11000000D01*
G75*
G02*
X12575000Y-10756250I0J243750D01*
G01*
G37*
G36*
G01*
X14450000Y-5706250D02*
X14450000Y-4793750D01*
G75*
G02*
X14693750Y-4550000I243750J0D01*
G01*
X15181250Y-4550000D01*
G75*
G02*
X15425000Y-4793750I0J-243750D01*
G01*
X15425000Y-5706250D01*
G75*
G02*
X15181250Y-5950000I-243750J0D01*
G01*
X14693750Y-5950000D01*
G75*
G02*
X14450000Y-5706250I0J243750D01*
G01*
G37*
G36*
G01*
X12575000Y-5706250D02*
X12575000Y-4793750D01*
G75*
G02*
X12818750Y-4550000I243750J0D01*
G01*
X13306250Y-4550000D01*
G75*
G02*
X13550000Y-4793750I0J-243750D01*
G01*
X13550000Y-5706250D01*
G75*
G02*
X13306250Y-5950000I-243750J0D01*
G01*
X12818750Y-5950000D01*
G75*
G02*
X12575000Y-5706250I0J243750D01*
G01*
G37*
G36*
G01*
X4950000Y-13306250D02*
X4950000Y-12393750D01*
G75*
G02*
X5193750Y-12150000I243750J0D01*
G01*
X5681250Y-12150000D01*
G75*
G02*
X5925000Y-12393750I0J-243750D01*
G01*
X5925000Y-13306250D01*
G75*
G02*
X5681250Y-13550000I-243750J0D01*
G01*
X5193750Y-13550000D01*
G75*
G02*
X4950000Y-13306250I0J243750D01*
G01*
G37*
G36*
G01*
X3075000Y-13306250D02*
X3075000Y-12393750D01*
G75*
G02*
X3318750Y-12150000I243750J0D01*
G01*
X3806250Y-12150000D01*
G75*
G02*
X4050000Y-12393750I0J-243750D01*
G01*
X4050000Y-13306250D01*
G75*
G02*
X3806250Y-13550000I-243750J0D01*
G01*
X3318750Y-13550000D01*
G75*
G02*
X3075000Y-13306250I0J243750D01*
G01*
G37*
G36*
G01*
X4950000Y-8206250D02*
X4950000Y-7293750D01*
G75*
G02*
X5193750Y-7050000I243750J0D01*
G01*
X5681250Y-7050000D01*
G75*
G02*
X5925000Y-7293750I0J-243750D01*
G01*
X5925000Y-8206250D01*
G75*
G02*
X5681250Y-8450000I-243750J0D01*
G01*
X5193750Y-8450000D01*
G75*
G02*
X4950000Y-8206250I0J243750D01*
G01*
G37*
G36*
G01*
X3075000Y-8206250D02*
X3075000Y-7293750D01*
G75*
G02*
X3318750Y-7050000I243750J0D01*
G01*
X3806250Y-7050000D01*
G75*
G02*
X4050000Y-7293750I0J-243750D01*
G01*
X4050000Y-8206250D01*
G75*
G02*
X3806250Y-8450000I-243750J0D01*
G01*
X3318750Y-8450000D01*
G75*
G02*
X3075000Y-8206250I0J243750D01*
G01*
G37*
G36*
G01*
X4950000Y-3156250D02*
X4950000Y-2243750D01*
G75*
G02*
X5193750Y-2000000I243750J0D01*
G01*
X5681250Y-2000000D01*
G75*
G02*
X5925000Y-2243750I0J-243750D01*
G01*
X5925000Y-3156250D01*
G75*
G02*
X5681250Y-3400000I-243750J0D01*
G01*
X5193750Y-3400000D01*
G75*
G02*
X4950000Y-3156250I0J243750D01*
G01*
G37*
G36*
G01*
X3075000Y-3156250D02*
X3075000Y-2243750D01*
G75*
G02*
X3318750Y-2000000I243750J0D01*
G01*
X3806250Y-2000000D01*
G75*
G02*
X4050000Y-2243750I0J-243750D01*
G01*
X4050000Y-3156250D01*
G75*
G02*
X3806250Y-3400000I-243750J0D01*
G01*
X3318750Y-3400000D01*
G75*
G02*
X3075000Y-3156250I0J243750D01*
G01*
G37*
G36*
G01*
X14450000Y-13306250D02*
X14450000Y-12393750D01*
G75*
G02*
X14693750Y-12150000I243750J0D01*
G01*
X15181250Y-12150000D01*
G75*
G02*
X15425000Y-12393750I0J-243750D01*
G01*
X15425000Y-13306250D01*
G75*
G02*
X15181250Y-13550000I-243750J0D01*
G01*
X14693750Y-13550000D01*
G75*
G02*
X14450000Y-13306250I0J243750D01*
G01*
G37*
G36*
G01*
X12575000Y-13306250D02*
X12575000Y-12393750D01*
G75*
G02*
X12818750Y-12150000I243750J0D01*
G01*
X13306250Y-12150000D01*
G75*
G02*
X13550000Y-12393750I0J-243750D01*
G01*
X13550000Y-13306250D01*
G75*
G02*
X13306250Y-13550000I-243750J0D01*
G01*
X12818750Y-13550000D01*
G75*
G02*
X12575000Y-13306250I0J243750D01*
G01*
G37*
G36*
G01*
X14450000Y-8206250D02*
X14450000Y-7293750D01*
G75*
G02*
X14693750Y-7050000I243750J0D01*
G01*
X15181250Y-7050000D01*
G75*
G02*
X15425000Y-7293750I0J-243750D01*
G01*
X15425000Y-8206250D01*
G75*
G02*
X15181250Y-8450000I-243750J0D01*
G01*
X14693750Y-8450000D01*
G75*
G02*
X14450000Y-8206250I0J243750D01*
G01*
G37*
G36*
G01*
X12575000Y-8206250D02*
X12575000Y-7293750D01*
G75*
G02*
X12818750Y-7050000I243750J0D01*
G01*
X13306250Y-7050000D01*
G75*
G02*
X13550000Y-7293750I0J-243750D01*
G01*
X13550000Y-8206250D01*
G75*
G02*
X13306250Y-8450000I-243750J0D01*
G01*
X12818750Y-8450000D01*
G75*
G02*
X12575000Y-8206250I0J243750D01*
G01*
G37*
G36*
G01*
X14450000Y-3156250D02*
X14450000Y-2243750D01*
G75*
G02*
X14693750Y-2000000I243750J0D01*
G01*
X15181250Y-2000000D01*
G75*
G02*
X15425000Y-2243750I0J-243750D01*
G01*
X15425000Y-3156250D01*
G75*
G02*
X15181250Y-3400000I-243750J0D01*
G01*
X14693750Y-3400000D01*
G75*
G02*
X14450000Y-3156250I0J243750D01*
G01*
G37*
G36*
G01*
X12575000Y-3156250D02*
X12575000Y-2243750D01*
G75*
G02*
X12818750Y-2000000I243750J0D01*
G01*
X13306250Y-2000000D01*
G75*
G02*
X13550000Y-2243750I0J-243750D01*
G01*
X13550000Y-3156250D01*
G75*
G02*
X13306250Y-3400000I-243750J0D01*
G01*
X12818750Y-3400000D01*
G75*
G02*
X12575000Y-3156250I0J243750D01*
G01*
G37*
G36*
G01*
X8559760Y-17750380D02*
X7660600Y-17750380D01*
G75*
G02*
X7559000Y-17648780I0J101600D01*
G01*
X7559000Y-16851220D01*
G75*
G02*
X7660600Y-16749620I101600J0D01*
G01*
X8559760Y-16749620D01*
G75*
G02*
X8661360Y-16851220I0J-101600D01*
G01*
X8661360Y-17648780D01*
G75*
G02*
X8559760Y-17750380I-101600J0D01*
G01*
G37*
G36*
G01*
X10657800Y-16800420D02*
X9758640Y-16800420D01*
G75*
G02*
X9657040Y-16698820I0J101600D01*
G01*
X9657040Y-15901260D01*
G75*
G02*
X9758640Y-15799660I101600J0D01*
G01*
X10657800Y-15799660D01*
G75*
G02*
X10759400Y-15901260I0J-101600D01*
G01*
X10759400Y-16698820D01*
G75*
G02*
X10657800Y-16800420I-101600J0D01*
G01*
G37*
G36*
G01*
X10657800Y-18700340D02*
X9758640Y-18700340D01*
G75*
G02*
X9657040Y-18598740I0J101600D01*
G01*
X9657040Y-17801180D01*
G75*
G02*
X9758640Y-17699580I101600J0D01*
G01*
X10657800Y-17699580D01*
G75*
G02*
X10759400Y-17801180I0J-101600D01*
G01*
X10759400Y-18598740D01*
G75*
G02*
X10657800Y-18700340I-101600J0D01*
G01*
G37*
G36*
G01*
X8559760Y-10950380D02*
X7660600Y-10950380D01*
G75*
G02*
X7559000Y-10848780I0J101600D01*
G01*
X7559000Y-10051220D01*
G75*
G02*
X7660600Y-9949620I101600J0D01*
G01*
X8559760Y-9949620D01*
G75*
G02*
X8661360Y-10051220I0J-101600D01*
G01*
X8661360Y-10848780D01*
G75*
G02*
X8559760Y-10950380I-101600J0D01*
G01*
G37*
G36*
G01*
X10657800Y-10000420D02*
X9758640Y-10000420D01*
G75*
G02*
X9657040Y-9898820I0J101600D01*
G01*
X9657040Y-9101260D01*
G75*
G02*
X9758640Y-8999660I101600J0D01*
G01*
X10657800Y-8999660D01*
G75*
G02*
X10759400Y-9101260I0J-101600D01*
G01*
X10759400Y-9898820D01*
G75*
G02*
X10657800Y-10000420I-101600J0D01*
G01*
G37*
G36*
G01*
X10657800Y-11900340D02*
X9758640Y-11900340D01*
G75*
G02*
X9657040Y-11798740I0J101600D01*
G01*
X9657040Y-11001180D01*
G75*
G02*
X9758640Y-10899580I101600J0D01*
G01*
X10657800Y-10899580D01*
G75*
G02*
X10759400Y-11001180I0J-101600D01*
G01*
X10759400Y-11798740D01*
G75*
G02*
X10657800Y-11900340I-101600J0D01*
G01*
G37*
G36*
G01*
X8559760Y-4150380D02*
X7660600Y-4150380D01*
G75*
G02*
X7559000Y-4048780I0J101600D01*
G01*
X7559000Y-3251220D01*
G75*
G02*
X7660600Y-3149620I101600J0D01*
G01*
X8559760Y-3149620D01*
G75*
G02*
X8661360Y-3251220I0J-101600D01*
G01*
X8661360Y-4048780D01*
G75*
G02*
X8559760Y-4150380I-101600J0D01*
G01*
G37*
G36*
G01*
X10657800Y-3200420D02*
X9758640Y-3200420D01*
G75*
G02*
X9657040Y-3098820I0J101600D01*
G01*
X9657040Y-2301260D01*
G75*
G02*
X9758640Y-2199660I101600J0D01*
G01*
X10657800Y-2199660D01*
G75*
G02*
X10759400Y-2301260I0J-101600D01*
G01*
X10759400Y-3098820D01*
G75*
G02*
X10657800Y-3200420I-101600J0D01*
G01*
G37*
G36*
G01*
X10657800Y-5100340D02*
X9758640Y-5100340D01*
G75*
G02*
X9657040Y-4998740I0J101600D01*
G01*
X9657040Y-4201180D01*
G75*
G02*
X9758640Y-4099580I101600J0D01*
G01*
X10657800Y-4099580D01*
G75*
G02*
X10759400Y-4201180I0J-101600D01*
G01*
X10759400Y-4998740D01*
G75*
G02*
X10657800Y-5100340I-101600J0D01*
G01*
G37*
G36*
G01*
X8559760Y-14350380D02*
X7660600Y-14350380D01*
G75*
G02*
X7559000Y-14248780I0J101600D01*
G01*
X7559000Y-13451220D01*
G75*
G02*
X7660600Y-13349620I101600J0D01*
G01*
X8559760Y-13349620D01*
G75*
G02*
X8661360Y-13451220I0J-101600D01*
G01*
X8661360Y-14248780D01*
G75*
G02*
X8559760Y-14350380I-101600J0D01*
G01*
G37*
G36*
G01*
X10657800Y-13400420D02*
X9758640Y-13400420D01*
G75*
G02*
X9657040Y-13298820I0J101600D01*
G01*
X9657040Y-12501260D01*
G75*
G02*
X9758640Y-12399660I101600J0D01*
G01*
X10657800Y-12399660D01*
G75*
G02*
X10759400Y-12501260I0J-101600D01*
G01*
X10759400Y-13298820D01*
G75*
G02*
X10657800Y-13400420I-101600J0D01*
G01*
G37*
G36*
G01*
X10657800Y-15300340D02*
X9758640Y-15300340D01*
G75*
G02*
X9657040Y-15198740I0J101600D01*
G01*
X9657040Y-14401180D01*
G75*
G02*
X9758640Y-14299580I101600J0D01*
G01*
X10657800Y-14299580D01*
G75*
G02*
X10759400Y-14401180I0J-101600D01*
G01*
X10759400Y-15198740D01*
G75*
G02*
X10657800Y-15300340I-101600J0D01*
G01*
G37*
G36*
G01*
X8559760Y-7550380D02*
X7660600Y-7550380D01*
G75*
G02*
X7559000Y-7448780I0J101600D01*
G01*
X7559000Y-6651220D01*
G75*
G02*
X7660600Y-6549620I101600J0D01*
G01*
X8559760Y-6549620D01*
G75*
G02*
X8661360Y-6651220I0J-101600D01*
G01*
X8661360Y-7448780D01*
G75*
G02*
X8559760Y-7550380I-101600J0D01*
G01*
G37*
G36*
G01*
X10657800Y-6600420D02*
X9758640Y-6600420D01*
G75*
G02*
X9657040Y-6498820I0J101600D01*
G01*
X9657040Y-5701260D01*
G75*
G02*
X9758640Y-5599660I101600J0D01*
G01*
X10657800Y-5599660D01*
G75*
G02*
X10759400Y-5701260I0J-101600D01*
G01*
X10759400Y-6498820D01*
G75*
G02*
X10657800Y-6600420I-101600J0D01*
G01*
G37*
G36*
G01*
X10657800Y-8500340D02*
X9758640Y-8500340D01*
G75*
G02*
X9657040Y-8398740I0J101600D01*
G01*
X9657040Y-7601180D01*
G75*
G02*
X9758640Y-7499580I101600J0D01*
G01*
X10657800Y-7499580D01*
G75*
G02*
X10759400Y-7601180I0J-101600D01*
G01*
X10759400Y-8398740D01*
G75*
G02*
X10657800Y-8500340I-101600J0D01*
G01*
G37*
G36*
G01*
X8559760Y-750380D02*
X7660600Y-750380D01*
G75*
G02*
X7559000Y-648780I0J101600D01*
G01*
X7559000Y148780D01*
G75*
G02*
X7660600Y250380I101600J0D01*
G01*
X8559760Y250380D01*
G75*
G02*
X8661360Y148780I0J-101600D01*
G01*
X8661360Y-648780D01*
G75*
G02*
X8559760Y-750380I-101600J0D01*
G01*
G37*
G36*
G01*
X10657800Y199580D02*
X9758640Y199580D01*
G75*
G02*
X9657040Y301180I0J101600D01*
G01*
X9657040Y1098740D01*
G75*
G02*
X9758640Y1200340I101600J0D01*
G01*
X10657800Y1200340D01*
G75*
G02*
X10759400Y1098740I0J-101600D01*
G01*
X10759400Y301180D01*
G75*
G02*
X10657800Y199580I-101600J0D01*
G01*
G37*
G36*
G01*
X10657800Y-1700340D02*
X9758640Y-1700340D01*
G75*
G02*
X9657040Y-1598740I0J101600D01*
G01*
X9657040Y-801180D01*
G75*
G02*
X9758640Y-699580I101600J0D01*
G01*
X10657800Y-699580D01*
G75*
G02*
X10759400Y-801180I0J-101600D01*
G01*
X10759400Y-1598740D01*
G75*
G02*
X10657800Y-1700340I-101600J0D01*
G01*
G37*
D10*
X18030000Y-150000D03*
D11*
X18030000Y-2690000D03*
X18030000Y-5230000D03*
X18030000Y-7770000D03*
X18030000Y-10310000D03*
X18030000Y-12850000D03*
X18030000Y-15390000D03*
X18030000Y-17930000D03*
X250000Y-17930000D03*
X250000Y-15390000D03*
X250000Y-12850000D03*
X250000Y-10310000D03*
X250000Y-7770000D03*
X250000Y-5230000D03*
X250000Y-2690000D03*
D10*
X250000Y-150000D03*
G36*
G01*
X13050000Y806250D02*
X13050000Y-106250D01*
G75*
G02*
X12806250Y-350000I-243750J0D01*
G01*
X12318750Y-350000D01*
G75*
G02*
X12075000Y-106250I0J243750D01*
G01*
X12075000Y806250D01*
G75*
G02*
X12318750Y1050000I243750J0D01*
G01*
X12806250Y1050000D01*
G75*
G02*
X13050000Y806250I0J-243750D01*
G01*
G37*
G36*
G01*
X14925000Y806250D02*
X14925000Y-106250D01*
G75*
G02*
X14681250Y-350000I-243750J0D01*
G01*
X14193750Y-350000D01*
G75*
G02*
X13950000Y-106250I0J243750D01*
G01*
X13950000Y806250D01*
G75*
G02*
X14193750Y1050000I243750J0D01*
G01*
X14681250Y1050000D01*
G75*
G02*
X14925000Y806250I0J-243750D01*
G01*
G37*
M02*
