G04 #@! TF.GenerationSoftware,KiCad,Pcbnew,(5.1.9)-1*
G04 #@! TF.CreationDate,2021-04-25T10:49:25+05:30*
G04 #@! TF.ProjectId,LOGIC LEVEL SHIFTER,4c4f4749-4320-44c4-9556-454c20534849,rev?*
G04 #@! TF.SameCoordinates,Original*
G04 #@! TF.FileFunction,Paste,Bot*
G04 #@! TF.FilePolarity,Positive*
%FSLAX46Y46*%
G04 Gerber Fmt 4.6, Leading zero omitted, Abs format (unit mm)*
G04 Created by KiCad (PCBNEW (5.1.9)-1) date 2021-04-25 10:49:25*
%MOMM*%
%LPD*%
G01*
G04 APERTURE LIST*
%ADD10R,2.000000X1.500000*%
%ADD11R,2.000000X3.800000*%
G04 APERTURE END LIST*
D10*
X6350000Y-10950000D03*
X6350000Y-6350000D03*
X6350000Y-8650000D03*
D11*
X12650000Y-8650000D03*
G36*
G01*
X9050000Y-13193750D02*
X9050000Y-14106250D01*
G75*
G02*
X8806250Y-14350000I-243750J0D01*
G01*
X8318750Y-14350000D01*
G75*
G02*
X8075000Y-14106250I0J243750D01*
G01*
X8075000Y-13193750D01*
G75*
G02*
X8318750Y-12950000I243750J0D01*
G01*
X8806250Y-12950000D01*
G75*
G02*
X9050000Y-13193750I0J-243750D01*
G01*
G37*
G36*
G01*
X10925000Y-13193750D02*
X10925000Y-14106250D01*
G75*
G02*
X10681250Y-14350000I-243750J0D01*
G01*
X10193750Y-14350000D01*
G75*
G02*
X9950000Y-14106250I0J243750D01*
G01*
X9950000Y-13193750D01*
G75*
G02*
X10193750Y-12950000I243750J0D01*
G01*
X10681250Y-12950000D01*
G75*
G02*
X10925000Y-13193750I0J-243750D01*
G01*
G37*
G36*
G01*
X9050000Y-3193750D02*
X9050000Y-4106250D01*
G75*
G02*
X8806250Y-4350000I-243750J0D01*
G01*
X8318750Y-4350000D01*
G75*
G02*
X8075000Y-4106250I0J243750D01*
G01*
X8075000Y-3193750D01*
G75*
G02*
X8318750Y-2950000I243750J0D01*
G01*
X8806250Y-2950000D01*
G75*
G02*
X9050000Y-3193750I0J-243750D01*
G01*
G37*
G36*
G01*
X10925000Y-3193750D02*
X10925000Y-4106250D01*
G75*
G02*
X10681250Y-4350000I-243750J0D01*
G01*
X10193750Y-4350000D01*
G75*
G02*
X9950000Y-4106250I0J243750D01*
G01*
X9950000Y-3193750D01*
G75*
G02*
X10193750Y-2950000I243750J0D01*
G01*
X10681250Y-2950000D01*
G75*
G02*
X10925000Y-3193750I0J-243750D01*
G01*
G37*
M02*
