G04 #@! TF.GenerationSoftware,KiCad,Pcbnew,(5.1.9)-1*
G04 #@! TF.CreationDate,2021-04-25T10:49:25+05:30*
G04 #@! TF.ProjectId,LOGIC LEVEL SHIFTER,4c4f4749-4320-44c4-9556-454c20534849,rev?*
G04 #@! TF.SameCoordinates,Original*
G04 #@! TF.FileFunction,Copper,L2,Bot*
G04 #@! TF.FilePolarity,Positive*
%FSLAX46Y46*%
G04 Gerber Fmt 4.6, Leading zero omitted, Abs format (unit mm)*
G04 Created by KiCad (PCBNEW (5.1.9)-1) date 2021-04-25 10:49:25*
%MOMM*%
%LPD*%
G01*
G04 APERTURE LIST*
G04 #@! TA.AperFunction,EtchedComponent*
%ADD10C,0.100000*%
G04 #@! TD*
G04 #@! TA.AperFunction,SMDPad,CuDef*
%ADD11R,2.000000X1.500000*%
G04 #@! TD*
G04 #@! TA.AperFunction,SMDPad,CuDef*
%ADD12R,2.000000X3.800000*%
G04 #@! TD*
G04 #@! TA.AperFunction,SMDPad,CuDef*
%ADD13C,0.100000*%
G04 #@! TD*
G04 #@! TA.AperFunction,ComponentPad*
%ADD14R,1.700000X1.700000*%
G04 #@! TD*
G04 #@! TA.AperFunction,ComponentPad*
%ADD15O,1.700000X1.700000*%
G04 #@! TD*
G04 #@! TA.AperFunction,ViaPad*
%ADD16C,0.600000*%
G04 #@! TD*
G04 #@! TA.AperFunction,Conductor*
%ADD17C,0.600000*%
G04 #@! TD*
G04 #@! TA.AperFunction,Conductor*
%ADD18C,0.300000*%
G04 #@! TD*
G04 #@! TA.AperFunction,Conductor*
%ADD19C,0.400000*%
G04 #@! TD*
G04 #@! TA.AperFunction,Conductor*
%ADD20C,0.254000*%
G04 #@! TD*
G04 #@! TA.AperFunction,Conductor*
%ADD21C,0.100000*%
G04 #@! TD*
G04 APERTURE END LIST*
D10*
G36*
X13300000Y-1400000D02*
G01*
X13300000Y-1900000D01*
X12700000Y-1900000D01*
X12700000Y-1400000D01*
X13300000Y-1400000D01*
G37*
G36*
X5800000Y-1400000D02*
G01*
X5800000Y-1900000D01*
X5200000Y-1900000D01*
X5200000Y-1400000D01*
X5800000Y-1400000D01*
G37*
D11*
X6350000Y-10950000D03*
X6350000Y-6350000D03*
X6350000Y-8650000D03*
D12*
X12650000Y-8650000D03*
G04 #@! TA.AperFunction,SMDPad,CuDef*
D13*
G36*
X13750000Y-1800000D02*
G01*
X13750000Y-2300000D01*
X13749398Y-2300000D01*
X13749398Y-2324534D01*
X13744588Y-2373365D01*
X13735016Y-2421490D01*
X13720772Y-2468445D01*
X13701995Y-2513778D01*
X13678864Y-2557051D01*
X13651604Y-2597850D01*
X13620476Y-2635779D01*
X13585779Y-2670476D01*
X13547850Y-2701604D01*
X13507051Y-2728864D01*
X13463778Y-2751995D01*
X13418445Y-2770772D01*
X13371490Y-2785016D01*
X13323365Y-2794588D01*
X13274534Y-2799398D01*
X13250000Y-2799398D01*
X13250000Y-2800000D01*
X12750000Y-2800000D01*
X12750000Y-2799398D01*
X12725466Y-2799398D01*
X12676635Y-2794588D01*
X12628510Y-2785016D01*
X12581555Y-2770772D01*
X12536222Y-2751995D01*
X12492949Y-2728864D01*
X12452150Y-2701604D01*
X12414221Y-2670476D01*
X12379524Y-2635779D01*
X12348396Y-2597850D01*
X12321136Y-2557051D01*
X12298005Y-2513778D01*
X12279228Y-2468445D01*
X12264984Y-2421490D01*
X12255412Y-2373365D01*
X12250602Y-2324534D01*
X12250602Y-2300000D01*
X12250000Y-2300000D01*
X12250000Y-1800000D01*
X13750000Y-1800000D01*
G37*
G04 #@! TD.AperFunction*
G04 #@! TA.AperFunction,SMDPad,CuDef*
G36*
X12250602Y-1000000D02*
G01*
X12250602Y-975466D01*
X12255412Y-926635D01*
X12264984Y-878510D01*
X12279228Y-831555D01*
X12298005Y-786222D01*
X12321136Y-742949D01*
X12348396Y-702150D01*
X12379524Y-664221D01*
X12414221Y-629524D01*
X12452150Y-598396D01*
X12492949Y-571136D01*
X12536222Y-548005D01*
X12581555Y-529228D01*
X12628510Y-514984D01*
X12676635Y-505412D01*
X12725466Y-500602D01*
X12750000Y-500602D01*
X12750000Y-500000D01*
X13250000Y-500000D01*
X13250000Y-500602D01*
X13274534Y-500602D01*
X13323365Y-505412D01*
X13371490Y-514984D01*
X13418445Y-529228D01*
X13463778Y-548005D01*
X13507051Y-571136D01*
X13547850Y-598396D01*
X13585779Y-629524D01*
X13620476Y-664221D01*
X13651604Y-702150D01*
X13678864Y-742949D01*
X13701995Y-786222D01*
X13720772Y-831555D01*
X13735016Y-878510D01*
X13744588Y-926635D01*
X13749398Y-975466D01*
X13749398Y-1000000D01*
X13750000Y-1000000D01*
X13750000Y-1500000D01*
X12250000Y-1500000D01*
X12250000Y-1000000D01*
X12250602Y-1000000D01*
G37*
G04 #@! TD.AperFunction*
G04 #@! TA.AperFunction,SMDPad,CuDef*
G36*
X6250000Y-1800000D02*
G01*
X6250000Y-2300000D01*
X6249398Y-2300000D01*
X6249398Y-2324534D01*
X6244588Y-2373365D01*
X6235016Y-2421490D01*
X6220772Y-2468445D01*
X6201995Y-2513778D01*
X6178864Y-2557051D01*
X6151604Y-2597850D01*
X6120476Y-2635779D01*
X6085779Y-2670476D01*
X6047850Y-2701604D01*
X6007051Y-2728864D01*
X5963778Y-2751995D01*
X5918445Y-2770772D01*
X5871490Y-2785016D01*
X5823365Y-2794588D01*
X5774534Y-2799398D01*
X5750000Y-2799398D01*
X5750000Y-2800000D01*
X5250000Y-2800000D01*
X5250000Y-2799398D01*
X5225466Y-2799398D01*
X5176635Y-2794588D01*
X5128510Y-2785016D01*
X5081555Y-2770772D01*
X5036222Y-2751995D01*
X4992949Y-2728864D01*
X4952150Y-2701604D01*
X4914221Y-2670476D01*
X4879524Y-2635779D01*
X4848396Y-2597850D01*
X4821136Y-2557051D01*
X4798005Y-2513778D01*
X4779228Y-2468445D01*
X4764984Y-2421490D01*
X4755412Y-2373365D01*
X4750602Y-2324534D01*
X4750602Y-2300000D01*
X4750000Y-2300000D01*
X4750000Y-1800000D01*
X6250000Y-1800000D01*
G37*
G04 #@! TD.AperFunction*
G04 #@! TA.AperFunction,SMDPad,CuDef*
G36*
X4750602Y-1000000D02*
G01*
X4750602Y-975466D01*
X4755412Y-926635D01*
X4764984Y-878510D01*
X4779228Y-831555D01*
X4798005Y-786222D01*
X4821136Y-742949D01*
X4848396Y-702150D01*
X4879524Y-664221D01*
X4914221Y-629524D01*
X4952150Y-598396D01*
X4992949Y-571136D01*
X5036222Y-548005D01*
X5081555Y-529228D01*
X5128510Y-514984D01*
X5176635Y-505412D01*
X5225466Y-500602D01*
X5250000Y-500602D01*
X5250000Y-500000D01*
X5750000Y-500000D01*
X5750000Y-500602D01*
X5774534Y-500602D01*
X5823365Y-505412D01*
X5871490Y-514984D01*
X5918445Y-529228D01*
X5963778Y-548005D01*
X6007051Y-571136D01*
X6047850Y-598396D01*
X6085779Y-629524D01*
X6120476Y-664221D01*
X6151604Y-702150D01*
X6178864Y-742949D01*
X6201995Y-786222D01*
X6220772Y-831555D01*
X6235016Y-878510D01*
X6244588Y-926635D01*
X6249398Y-975466D01*
X6249398Y-1000000D01*
X6250000Y-1000000D01*
X6250000Y-1500000D01*
X4750000Y-1500000D01*
X4750000Y-1000000D01*
X4750602Y-1000000D01*
G37*
G04 #@! TD.AperFunction*
D14*
X18030000Y-150000D03*
D15*
X18030000Y-2690000D03*
X18030000Y-5230000D03*
X18030000Y-7770000D03*
X18030000Y-10310000D03*
X18030000Y-12850000D03*
X18030000Y-15390000D03*
X18030000Y-17930000D03*
X250000Y-17930000D03*
X250000Y-15390000D03*
X250000Y-12850000D03*
X250000Y-10310000D03*
X250000Y-7770000D03*
X250000Y-5230000D03*
X250000Y-2690000D03*
D14*
X250000Y-150000D03*
G04 #@! TA.AperFunction,SMDPad,CuDef*
G36*
G01*
X9050000Y-13193750D02*
X9050000Y-14106250D01*
G75*
G02*
X8806250Y-14350000I-243750J0D01*
G01*
X8318750Y-14350000D01*
G75*
G02*
X8075000Y-14106250I0J243750D01*
G01*
X8075000Y-13193750D01*
G75*
G02*
X8318750Y-12950000I243750J0D01*
G01*
X8806250Y-12950000D01*
G75*
G02*
X9050000Y-13193750I0J-243750D01*
G01*
G37*
G04 #@! TD.AperFunction*
G04 #@! TA.AperFunction,SMDPad,CuDef*
G36*
G01*
X10925000Y-13193750D02*
X10925000Y-14106250D01*
G75*
G02*
X10681250Y-14350000I-243750J0D01*
G01*
X10193750Y-14350000D01*
G75*
G02*
X9950000Y-14106250I0J243750D01*
G01*
X9950000Y-13193750D01*
G75*
G02*
X10193750Y-12950000I243750J0D01*
G01*
X10681250Y-12950000D01*
G75*
G02*
X10925000Y-13193750I0J-243750D01*
G01*
G37*
G04 #@! TD.AperFunction*
G04 #@! TA.AperFunction,SMDPad,CuDef*
G36*
G01*
X9050000Y-3193750D02*
X9050000Y-4106250D01*
G75*
G02*
X8806250Y-4350000I-243750J0D01*
G01*
X8318750Y-4350000D01*
G75*
G02*
X8075000Y-4106250I0J243750D01*
G01*
X8075000Y-3193750D01*
G75*
G02*
X8318750Y-2950000I243750J0D01*
G01*
X8806250Y-2950000D01*
G75*
G02*
X9050000Y-3193750I0J-243750D01*
G01*
G37*
G04 #@! TD.AperFunction*
G04 #@! TA.AperFunction,SMDPad,CuDef*
G36*
G01*
X10925000Y-3193750D02*
X10925000Y-4106250D01*
G75*
G02*
X10681250Y-4350000I-243750J0D01*
G01*
X10193750Y-4350000D01*
G75*
G02*
X9950000Y-4106250I0J243750D01*
G01*
X9950000Y-3193750D01*
G75*
G02*
X10193750Y-2950000I243750J0D01*
G01*
X10681250Y-2950000D01*
G75*
G02*
X10925000Y-3193750I0J-243750D01*
G01*
G37*
G04 #@! TD.AperFunction*
D16*
X3000000Y850000D03*
X15500000Y850000D03*
X7000000Y850000D03*
X13500000Y1350000D03*
X2500000Y-2650000D03*
X2500000Y-15350000D03*
X2500000Y-12750000D03*
X2500000Y-10250000D03*
X2500000Y-7850000D03*
X2500000Y-5250000D03*
X15900000Y-15350000D03*
X15900000Y-2750000D03*
X15900000Y-5250000D03*
X15900000Y-7750000D03*
X15900000Y-10350000D03*
X15900000Y-12850000D03*
X9200000Y-1550000D03*
D17*
X5500000Y-5500000D02*
X6350000Y-6350000D01*
X5650000Y-3650000D02*
X5500000Y-3500000D01*
X8562500Y-3650000D02*
X5650000Y-3650000D01*
X5500000Y-3500000D02*
X5500000Y-5500000D01*
X5500000Y-2300000D02*
X5500000Y-3500000D01*
D18*
X3500000Y350000D02*
X3000000Y850000D01*
X6000000Y350000D02*
X3500000Y350000D01*
X7000000Y-650000D02*
X6000000Y350000D01*
X7000000Y-2150000D02*
X7000000Y-650000D01*
X6850000Y-2300000D02*
X7000000Y-2150000D01*
X5500000Y-2300000D02*
X6850000Y-2300000D01*
D17*
X6350000Y-8650000D02*
X12650000Y-8650000D01*
X13000000Y-8300000D02*
X12650000Y-8650000D01*
X13000000Y-2300000D02*
X13000000Y-8300000D01*
X10437500Y-13650000D02*
X11500000Y-13650000D01*
X12650000Y-12500000D02*
X12650000Y-8650000D01*
X11500000Y-13650000D02*
X12650000Y-12500000D01*
D18*
X13000000Y850000D02*
X13500000Y1350000D01*
X7000000Y850000D02*
X13000000Y850000D01*
D19*
X2500000Y-12750000D02*
X2500000Y-15350000D01*
X2500000Y-10250000D02*
X2500000Y-12750000D01*
X2500000Y-7850000D02*
X2500000Y-10250000D01*
X2500000Y-5250000D02*
X2500000Y-7850000D01*
X2500000Y-2650000D02*
X2500000Y-5250000D01*
X5500000Y-1000000D02*
X2750000Y-1000000D01*
X2750000Y-1000000D02*
X2500000Y-750000D01*
X2500000Y-750000D02*
X2500000Y-2650000D01*
X1900000Y-150000D02*
X2500000Y-750000D01*
X500000Y-150000D02*
X1900000Y-150000D01*
X15900000Y-5250000D02*
X15900000Y-2750000D01*
X15900000Y-7750000D02*
X15900000Y-5250000D01*
X15900000Y-10350000D02*
X15900000Y-7750000D01*
X15900000Y-12850000D02*
X15900000Y-10350000D01*
X15900000Y-15350000D02*
X15900000Y-12850000D01*
X17960000Y-150000D02*
X16000000Y-150000D01*
X9200000Y-1550000D02*
X9600000Y-1150000D01*
X12850000Y-1150000D02*
X13000000Y-1000000D01*
X9600000Y-1150000D02*
X12850000Y-1150000D01*
X15900000Y-250000D02*
X16000000Y-150000D01*
X15550000Y-1000000D02*
X15900000Y-650000D01*
X13000000Y-1000000D02*
X15550000Y-1000000D01*
X15900000Y-650000D02*
X15900000Y-250000D01*
X15900000Y-2750000D02*
X15900000Y-650000D01*
D20*
X19613826Y2074863D02*
X19723316Y2041806D01*
X19824304Y1988110D01*
X19912933Y1915826D01*
X19985834Y1827703D01*
X20040234Y1727094D01*
X20074055Y1617836D01*
X20088000Y1485159D01*
X20088001Y-19479836D01*
X20074863Y-19613826D01*
X20041805Y-19723319D01*
X19988111Y-19824303D01*
X19915827Y-19912931D01*
X19827700Y-19985837D01*
X19727093Y-20040234D01*
X19617836Y-20074055D01*
X19485159Y-20088000D01*
X-1479847Y-20088000D01*
X-1613826Y-20074863D01*
X-1723319Y-20041805D01*
X-1824303Y-19988111D01*
X-1912931Y-19915827D01*
X-1985837Y-19827700D01*
X-2040234Y-19727093D01*
X-2074055Y-19617836D01*
X-2088000Y-19485159D01*
X-2088000Y-15268166D01*
X-987000Y-15268166D01*
X-987000Y-15511834D01*
X-939462Y-15750819D01*
X-846215Y-15975939D01*
X-710840Y-16178541D01*
X-538541Y-16350840D01*
X-335939Y-16486215D01*
X-110819Y-16579462D01*
X128166Y-16627000D01*
X371834Y-16627000D01*
X610819Y-16579462D01*
X835939Y-16486215D01*
X1038541Y-16350840D01*
X1210840Y-16178541D01*
X1346215Y-15975939D01*
X1439462Y-15750819D01*
X1487000Y-15511834D01*
X1487000Y-15268166D01*
X1439462Y-15029181D01*
X1346215Y-14804061D01*
X1210840Y-14601459D01*
X1038541Y-14429160D01*
X835939Y-14293785D01*
X610819Y-14200538D01*
X371834Y-14153000D01*
X128166Y-14153000D01*
X-110819Y-14200538D01*
X-335939Y-14293785D01*
X-538541Y-14429160D01*
X-710840Y-14601459D01*
X-846215Y-14804061D01*
X-939462Y-15029181D01*
X-987000Y-15268166D01*
X-2088000Y-15268166D01*
X-2088000Y-12728166D01*
X-987000Y-12728166D01*
X-987000Y-12971834D01*
X-939462Y-13210819D01*
X-846215Y-13435939D01*
X-710840Y-13638541D01*
X-538541Y-13810840D01*
X-335939Y-13946215D01*
X-110819Y-14039462D01*
X128166Y-14087000D01*
X371834Y-14087000D01*
X610819Y-14039462D01*
X835939Y-13946215D01*
X1038541Y-13810840D01*
X1210840Y-13638541D01*
X1346215Y-13435939D01*
X1439462Y-13210819D01*
X1487000Y-12971834D01*
X1487000Y-12728166D01*
X1439462Y-12489181D01*
X1346215Y-12264061D01*
X1210840Y-12061459D01*
X1038541Y-11889160D01*
X835939Y-11753785D01*
X610819Y-11660538D01*
X371834Y-11613000D01*
X128166Y-11613000D01*
X-110819Y-11660538D01*
X-335939Y-11753785D01*
X-538541Y-11889160D01*
X-710840Y-12061459D01*
X-846215Y-12264061D01*
X-939462Y-12489181D01*
X-987000Y-12728166D01*
X-2088000Y-12728166D01*
X-2088000Y-10188166D01*
X-987000Y-10188166D01*
X-987000Y-10431834D01*
X-939462Y-10670819D01*
X-846215Y-10895939D01*
X-710840Y-11098541D01*
X-538541Y-11270840D01*
X-335939Y-11406215D01*
X-110819Y-11499462D01*
X128166Y-11547000D01*
X371834Y-11547000D01*
X610819Y-11499462D01*
X835939Y-11406215D01*
X1038541Y-11270840D01*
X1210840Y-11098541D01*
X1346215Y-10895939D01*
X1439462Y-10670819D01*
X1487000Y-10431834D01*
X1487000Y-10188166D01*
X1439462Y-9949181D01*
X1346215Y-9724061D01*
X1210840Y-9521459D01*
X1038541Y-9349160D01*
X835939Y-9213785D01*
X610819Y-9120538D01*
X371834Y-9073000D01*
X128166Y-9073000D01*
X-110819Y-9120538D01*
X-335939Y-9213785D01*
X-538541Y-9349160D01*
X-710840Y-9521459D01*
X-846215Y-9724061D01*
X-939462Y-9949181D01*
X-987000Y-10188166D01*
X-2088000Y-10188166D01*
X-2088000Y-7648166D01*
X-987000Y-7648166D01*
X-987000Y-7891834D01*
X-939462Y-8130819D01*
X-846215Y-8355939D01*
X-710840Y-8558541D01*
X-538541Y-8730840D01*
X-335939Y-8866215D01*
X-110819Y-8959462D01*
X128166Y-9007000D01*
X371834Y-9007000D01*
X610819Y-8959462D01*
X835939Y-8866215D01*
X1038541Y-8730840D01*
X1210840Y-8558541D01*
X1346215Y-8355939D01*
X1439462Y-8130819D01*
X1487000Y-7891834D01*
X1487000Y-7648166D01*
X1439462Y-7409181D01*
X1346215Y-7184061D01*
X1210840Y-6981459D01*
X1038541Y-6809160D01*
X835939Y-6673785D01*
X610819Y-6580538D01*
X371834Y-6533000D01*
X128166Y-6533000D01*
X-110819Y-6580538D01*
X-335939Y-6673785D01*
X-538541Y-6809160D01*
X-710840Y-6981459D01*
X-846215Y-7184061D01*
X-939462Y-7409181D01*
X-987000Y-7648166D01*
X-2088000Y-7648166D01*
X-2088000Y-5108166D01*
X-987000Y-5108166D01*
X-987000Y-5351834D01*
X-939462Y-5590819D01*
X-846215Y-5815939D01*
X-710840Y-6018541D01*
X-538541Y-6190840D01*
X-335939Y-6326215D01*
X-110819Y-6419462D01*
X128166Y-6467000D01*
X371834Y-6467000D01*
X610819Y-6419462D01*
X835939Y-6326215D01*
X1038541Y-6190840D01*
X1210840Y-6018541D01*
X1346215Y-5815939D01*
X1439462Y-5590819D01*
X1487000Y-5351834D01*
X1487000Y-5108166D01*
X1439462Y-4869181D01*
X1346215Y-4644061D01*
X1210840Y-4441459D01*
X1038541Y-4269160D01*
X835939Y-4133785D01*
X610819Y-4040538D01*
X371834Y-3993000D01*
X128166Y-3993000D01*
X-110819Y-4040538D01*
X-335939Y-4133785D01*
X-538541Y-4269160D01*
X-710840Y-4441459D01*
X-846215Y-4644061D01*
X-939462Y-4869181D01*
X-987000Y-5108166D01*
X-2088000Y-5108166D01*
X-2088000Y-2568166D01*
X-987000Y-2568166D01*
X-987000Y-2811834D01*
X-939462Y-3050819D01*
X-846215Y-3275939D01*
X-710840Y-3478541D01*
X-538541Y-3650840D01*
X-335939Y-3786215D01*
X-110819Y-3879462D01*
X128166Y-3927000D01*
X371834Y-3927000D01*
X610819Y-3879462D01*
X835939Y-3786215D01*
X1038541Y-3650840D01*
X1210840Y-3478541D01*
X1346215Y-3275939D01*
X1439462Y-3050819D01*
X1487000Y-2811834D01*
X1487000Y-2568166D01*
X1439462Y-2329181D01*
X1346215Y-2104061D01*
X1210840Y-1901459D01*
X1038541Y-1729160D01*
X835939Y-1593785D01*
X610819Y-1500538D01*
X371834Y-1453000D01*
X128166Y-1453000D01*
X-110819Y-1500538D01*
X-335939Y-1593785D01*
X-538541Y-1729160D01*
X-710840Y-1901459D01*
X-846215Y-2104061D01*
X-939462Y-2329181D01*
X-987000Y-2568166D01*
X-2088000Y-2568166D01*
X-2088000Y700000D01*
X-988872Y700000D01*
X-988872Y-1000000D01*
X-981400Y-1075865D01*
X-959271Y-1148815D01*
X-923335Y-1216046D01*
X-874974Y-1274974D01*
X-816046Y-1323335D01*
X-748815Y-1359271D01*
X-675865Y-1381400D01*
X-600000Y-1388872D01*
X1100000Y-1388872D01*
X1175865Y-1381400D01*
X1248815Y-1359271D01*
X1316046Y-1323335D01*
X1374974Y-1274974D01*
X1423335Y-1216046D01*
X1459271Y-1148815D01*
X1481400Y-1075865D01*
X1488872Y-1000000D01*
X1488872Y-737000D01*
X1656857Y-737000D01*
X1913000Y-993144D01*
X1913001Y-2291940D01*
X1891189Y-2324584D01*
X1839401Y-2449610D01*
X1813000Y-2582336D01*
X1813000Y-2717664D01*
X1839401Y-2850390D01*
X1891189Y-2975416D01*
X1913000Y-3008059D01*
X1913001Y-4891940D01*
X1891189Y-4924584D01*
X1839401Y-5049610D01*
X1813000Y-5182336D01*
X1813000Y-5317664D01*
X1839401Y-5450390D01*
X1891189Y-5575416D01*
X1913000Y-5608059D01*
X1913001Y-7491940D01*
X1891189Y-7524584D01*
X1839401Y-7649610D01*
X1813000Y-7782336D01*
X1813000Y-7917664D01*
X1839401Y-8050390D01*
X1891189Y-8175416D01*
X1913000Y-8208059D01*
X1913001Y-9891940D01*
X1891189Y-9924584D01*
X1839401Y-10049610D01*
X1813000Y-10182336D01*
X1813000Y-10317664D01*
X1839401Y-10450390D01*
X1891189Y-10575416D01*
X1913000Y-10608059D01*
X1913001Y-12391940D01*
X1891189Y-12424584D01*
X1839401Y-12549610D01*
X1813000Y-12682336D01*
X1813000Y-12817664D01*
X1839401Y-12950390D01*
X1891189Y-13075416D01*
X1913000Y-13108059D01*
X1913001Y-14991940D01*
X1891189Y-15024584D01*
X1839401Y-15149610D01*
X1813000Y-15282336D01*
X1813000Y-15417664D01*
X1839401Y-15550390D01*
X1891189Y-15675416D01*
X1966372Y-15787937D01*
X2062063Y-15883628D01*
X2174584Y-15958811D01*
X2299610Y-16010599D01*
X2432336Y-16037000D01*
X2567664Y-16037000D01*
X2700390Y-16010599D01*
X2825416Y-15958811D01*
X2937937Y-15883628D01*
X3033628Y-15787937D01*
X3108811Y-15675416D01*
X3160599Y-15550390D01*
X3187000Y-15417664D01*
X3187000Y-15282336D01*
X3160599Y-15149610D01*
X3108811Y-15024584D01*
X3087000Y-14991941D01*
X3087000Y-13108059D01*
X3108811Y-13075416D01*
X3160599Y-12950390D01*
X3187000Y-12817664D01*
X3187000Y-12682336D01*
X3160599Y-12549610D01*
X3108811Y-12424584D01*
X3087000Y-12391941D01*
X3087000Y-10608059D01*
X3108811Y-10575416D01*
X3160599Y-10450390D01*
X3187000Y-10317664D01*
X3187000Y-10182336D01*
X3160599Y-10049610D01*
X3108811Y-9924584D01*
X3087000Y-9891941D01*
X3087000Y-8208059D01*
X3108811Y-8175416D01*
X3160599Y-8050390D01*
X3187000Y-7917664D01*
X3187000Y-7900000D01*
X4961128Y-7900000D01*
X4961128Y-9400000D01*
X4968600Y-9475865D01*
X4990729Y-9548815D01*
X5026665Y-9616046D01*
X5075026Y-9674974D01*
X5133954Y-9723335D01*
X5201185Y-9759271D01*
X5274135Y-9781400D01*
X5350000Y-9788872D01*
X7350000Y-9788872D01*
X7425865Y-9781400D01*
X7498815Y-9759271D01*
X7566046Y-9723335D01*
X7624974Y-9674974D01*
X7673335Y-9616046D01*
X7709271Y-9548815D01*
X7731400Y-9475865D01*
X7738872Y-9400000D01*
X7738872Y-9337000D01*
X11261128Y-9337000D01*
X11261128Y-10550000D01*
X11268600Y-10625865D01*
X11290729Y-10698815D01*
X11326665Y-10766046D01*
X11375026Y-10824974D01*
X11433954Y-10873335D01*
X11501185Y-10909271D01*
X11574135Y-10931400D01*
X11650000Y-10938872D01*
X11963000Y-10938872D01*
X11963000Y-12215435D01*
X11252154Y-12926282D01*
X11207256Y-12842284D01*
X11128581Y-12746419D01*
X11032716Y-12667744D01*
X10923344Y-12609283D01*
X10804668Y-12573284D01*
X10681250Y-12561128D01*
X10193750Y-12561128D01*
X10070332Y-12573284D01*
X9951656Y-12609283D01*
X9842284Y-12667744D01*
X9746419Y-12746419D01*
X9667744Y-12842284D01*
X9609283Y-12951656D01*
X9573284Y-13070332D01*
X9561128Y-13193750D01*
X9561128Y-14106250D01*
X9573284Y-14229668D01*
X9609283Y-14348344D01*
X9667744Y-14457716D01*
X9746419Y-14553581D01*
X9842284Y-14632256D01*
X9951656Y-14690717D01*
X10070332Y-14726716D01*
X10193750Y-14738872D01*
X10681250Y-14738872D01*
X10804668Y-14726716D01*
X10923344Y-14690717D01*
X11032716Y-14632256D01*
X11128581Y-14553581D01*
X11207256Y-14457716D01*
X11265717Y-14348344D01*
X11269158Y-14337000D01*
X11466255Y-14337000D01*
X11500000Y-14340324D01*
X11533745Y-14337000D01*
X11533750Y-14337000D01*
X11634676Y-14327060D01*
X11764176Y-14287776D01*
X11805747Y-14265555D01*
X11883523Y-14223984D01*
X11932143Y-14184082D01*
X11988133Y-14138133D01*
X12009650Y-14111914D01*
X13111924Y-13009641D01*
X13138132Y-12988133D01*
X13159642Y-12961923D01*
X13159647Y-12961918D01*
X13223984Y-12883524D01*
X13279941Y-12778834D01*
X13287776Y-12764176D01*
X13327060Y-12634676D01*
X13337000Y-12533750D01*
X13337000Y-12533748D01*
X13340324Y-12500000D01*
X13337000Y-12466253D01*
X13337000Y-10938872D01*
X13650000Y-10938872D01*
X13725865Y-10931400D01*
X13798815Y-10909271D01*
X13866046Y-10873335D01*
X13924974Y-10824974D01*
X13973335Y-10766046D01*
X14009271Y-10698815D01*
X14031400Y-10625865D01*
X14038872Y-10550000D01*
X14038872Y-6750000D01*
X14031400Y-6674135D01*
X14009271Y-6601185D01*
X13973335Y-6533954D01*
X13924974Y-6475026D01*
X13866046Y-6426665D01*
X13798815Y-6390729D01*
X13725865Y-6368600D01*
X13687000Y-6364772D01*
X13687000Y-3072178D01*
X13701745Y-3064297D01*
X13783244Y-3009841D01*
X13842172Y-2961480D01*
X13911480Y-2892172D01*
X13959841Y-2833244D01*
X14014297Y-2751745D01*
X14050234Y-2684511D01*
X14087743Y-2593955D01*
X14109871Y-2521007D01*
X14128993Y-2424874D01*
X14136465Y-2349009D01*
X14136465Y-2324449D01*
X14138873Y-2300000D01*
X14138873Y-1800000D01*
X14131401Y-1724135D01*
X14109272Y-1651185D01*
X14108639Y-1650000D01*
X14109272Y-1648815D01*
X14128023Y-1587000D01*
X15313001Y-1587000D01*
X15313000Y-2391941D01*
X15291189Y-2424584D01*
X15239401Y-2549610D01*
X15213000Y-2682336D01*
X15213000Y-2817664D01*
X15239401Y-2950390D01*
X15291189Y-3075416D01*
X15313001Y-3108060D01*
X15313000Y-4891941D01*
X15291189Y-4924584D01*
X15239401Y-5049610D01*
X15213000Y-5182336D01*
X15213000Y-5317664D01*
X15239401Y-5450390D01*
X15291189Y-5575416D01*
X15313001Y-5608060D01*
X15313000Y-7391941D01*
X15291189Y-7424584D01*
X15239401Y-7549610D01*
X15213000Y-7682336D01*
X15213000Y-7817664D01*
X15239401Y-7950390D01*
X15291189Y-8075416D01*
X15313001Y-8108060D01*
X15313000Y-9991941D01*
X15291189Y-10024584D01*
X15239401Y-10149610D01*
X15213000Y-10282336D01*
X15213000Y-10417664D01*
X15239401Y-10550390D01*
X15291189Y-10675416D01*
X15313001Y-10708060D01*
X15313000Y-12491941D01*
X15291189Y-12524584D01*
X15239401Y-12649610D01*
X15213000Y-12782336D01*
X15213000Y-12917664D01*
X15239401Y-13050390D01*
X15291189Y-13175416D01*
X15313001Y-13208060D01*
X15313000Y-14991941D01*
X15291189Y-15024584D01*
X15239401Y-15149610D01*
X15213000Y-15282336D01*
X15213000Y-15417664D01*
X15239401Y-15550390D01*
X15291189Y-15675416D01*
X15366372Y-15787937D01*
X15462063Y-15883628D01*
X15574584Y-15958811D01*
X15699610Y-16010599D01*
X15832336Y-16037000D01*
X15967664Y-16037000D01*
X16100390Y-16010599D01*
X16225416Y-15958811D01*
X16337937Y-15883628D01*
X16433628Y-15787937D01*
X16508811Y-15675416D01*
X16560599Y-15550390D01*
X16587000Y-15417664D01*
X16587000Y-15282336D01*
X16584182Y-15268166D01*
X16793000Y-15268166D01*
X16793000Y-15511834D01*
X16840538Y-15750819D01*
X16933785Y-15975939D01*
X17069160Y-16178541D01*
X17241459Y-16350840D01*
X17444061Y-16486215D01*
X17669181Y-16579462D01*
X17908166Y-16627000D01*
X18151834Y-16627000D01*
X18390819Y-16579462D01*
X18615939Y-16486215D01*
X18818541Y-16350840D01*
X18990840Y-16178541D01*
X19126215Y-15975939D01*
X19219462Y-15750819D01*
X19267000Y-15511834D01*
X19267000Y-15268166D01*
X19219462Y-15029181D01*
X19126215Y-14804061D01*
X18990840Y-14601459D01*
X18818541Y-14429160D01*
X18615939Y-14293785D01*
X18390819Y-14200538D01*
X18151834Y-14153000D01*
X17908166Y-14153000D01*
X17669181Y-14200538D01*
X17444061Y-14293785D01*
X17241459Y-14429160D01*
X17069160Y-14601459D01*
X16933785Y-14804061D01*
X16840538Y-15029181D01*
X16793000Y-15268166D01*
X16584182Y-15268166D01*
X16560599Y-15149610D01*
X16508811Y-15024584D01*
X16487000Y-14991941D01*
X16487000Y-13208059D01*
X16508811Y-13175416D01*
X16560599Y-13050390D01*
X16587000Y-12917664D01*
X16587000Y-12782336D01*
X16576225Y-12728166D01*
X16793000Y-12728166D01*
X16793000Y-12971834D01*
X16840538Y-13210819D01*
X16933785Y-13435939D01*
X17069160Y-13638541D01*
X17241459Y-13810840D01*
X17444061Y-13946215D01*
X17669181Y-14039462D01*
X17908166Y-14087000D01*
X18151834Y-14087000D01*
X18390819Y-14039462D01*
X18615939Y-13946215D01*
X18818541Y-13810840D01*
X18990840Y-13638541D01*
X19126215Y-13435939D01*
X19219462Y-13210819D01*
X19267000Y-12971834D01*
X19267000Y-12728166D01*
X19219462Y-12489181D01*
X19126215Y-12264061D01*
X18990840Y-12061459D01*
X18818541Y-11889160D01*
X18615939Y-11753785D01*
X18390819Y-11660538D01*
X18151834Y-11613000D01*
X17908166Y-11613000D01*
X17669181Y-11660538D01*
X17444061Y-11753785D01*
X17241459Y-11889160D01*
X17069160Y-12061459D01*
X16933785Y-12264061D01*
X16840538Y-12489181D01*
X16793000Y-12728166D01*
X16576225Y-12728166D01*
X16560599Y-12649610D01*
X16508811Y-12524584D01*
X16487000Y-12491941D01*
X16487000Y-10708059D01*
X16508811Y-10675416D01*
X16560599Y-10550390D01*
X16587000Y-10417664D01*
X16587000Y-10282336D01*
X16568269Y-10188166D01*
X16793000Y-10188166D01*
X16793000Y-10431834D01*
X16840538Y-10670819D01*
X16933785Y-10895939D01*
X17069160Y-11098541D01*
X17241459Y-11270840D01*
X17444061Y-11406215D01*
X17669181Y-11499462D01*
X17908166Y-11547000D01*
X18151834Y-11547000D01*
X18390819Y-11499462D01*
X18615939Y-11406215D01*
X18818541Y-11270840D01*
X18990840Y-11098541D01*
X19126215Y-10895939D01*
X19219462Y-10670819D01*
X19267000Y-10431834D01*
X19267000Y-10188166D01*
X19219462Y-9949181D01*
X19126215Y-9724061D01*
X18990840Y-9521459D01*
X18818541Y-9349160D01*
X18615939Y-9213785D01*
X18390819Y-9120538D01*
X18151834Y-9073000D01*
X17908166Y-9073000D01*
X17669181Y-9120538D01*
X17444061Y-9213785D01*
X17241459Y-9349160D01*
X17069160Y-9521459D01*
X16933785Y-9724061D01*
X16840538Y-9949181D01*
X16793000Y-10188166D01*
X16568269Y-10188166D01*
X16560599Y-10149610D01*
X16508811Y-10024584D01*
X16487000Y-9991941D01*
X16487000Y-8108059D01*
X16508811Y-8075416D01*
X16560599Y-7950390D01*
X16587000Y-7817664D01*
X16587000Y-7682336D01*
X16580204Y-7648166D01*
X16793000Y-7648166D01*
X16793000Y-7891834D01*
X16840538Y-8130819D01*
X16933785Y-8355939D01*
X17069160Y-8558541D01*
X17241459Y-8730840D01*
X17444061Y-8866215D01*
X17669181Y-8959462D01*
X17908166Y-9007000D01*
X18151834Y-9007000D01*
X18390819Y-8959462D01*
X18615939Y-8866215D01*
X18818541Y-8730840D01*
X18990840Y-8558541D01*
X19126215Y-8355939D01*
X19219462Y-8130819D01*
X19267000Y-7891834D01*
X19267000Y-7648166D01*
X19219462Y-7409181D01*
X19126215Y-7184061D01*
X18990840Y-6981459D01*
X18818541Y-6809160D01*
X18615939Y-6673785D01*
X18390819Y-6580538D01*
X18151834Y-6533000D01*
X17908166Y-6533000D01*
X17669181Y-6580538D01*
X17444061Y-6673785D01*
X17241459Y-6809160D01*
X17069160Y-6981459D01*
X16933785Y-7184061D01*
X16840538Y-7409181D01*
X16793000Y-7648166D01*
X16580204Y-7648166D01*
X16560599Y-7549610D01*
X16508811Y-7424584D01*
X16487000Y-7391941D01*
X16487000Y-5608059D01*
X16508811Y-5575416D01*
X16560599Y-5450390D01*
X16587000Y-5317664D01*
X16587000Y-5182336D01*
X16572247Y-5108166D01*
X16793000Y-5108166D01*
X16793000Y-5351834D01*
X16840538Y-5590819D01*
X16933785Y-5815939D01*
X17069160Y-6018541D01*
X17241459Y-6190840D01*
X17444061Y-6326215D01*
X17669181Y-6419462D01*
X17908166Y-6467000D01*
X18151834Y-6467000D01*
X18390819Y-6419462D01*
X18615939Y-6326215D01*
X18818541Y-6190840D01*
X18990840Y-6018541D01*
X19126215Y-5815939D01*
X19219462Y-5590819D01*
X19267000Y-5351834D01*
X19267000Y-5108166D01*
X19219462Y-4869181D01*
X19126215Y-4644061D01*
X18990840Y-4441459D01*
X18818541Y-4269160D01*
X18615939Y-4133785D01*
X18390819Y-4040538D01*
X18151834Y-3993000D01*
X17908166Y-3993000D01*
X17669181Y-4040538D01*
X17444061Y-4133785D01*
X17241459Y-4269160D01*
X17069160Y-4441459D01*
X16933785Y-4644061D01*
X16840538Y-4869181D01*
X16793000Y-5108166D01*
X16572247Y-5108166D01*
X16560599Y-5049610D01*
X16508811Y-4924584D01*
X16487000Y-4891941D01*
X16487000Y-3108059D01*
X16508811Y-3075416D01*
X16560599Y-2950390D01*
X16587000Y-2817664D01*
X16587000Y-2682336D01*
X16564291Y-2568166D01*
X16793000Y-2568166D01*
X16793000Y-2811834D01*
X16840538Y-3050819D01*
X16933785Y-3275939D01*
X17069160Y-3478541D01*
X17241459Y-3650840D01*
X17444061Y-3786215D01*
X17669181Y-3879462D01*
X17908166Y-3927000D01*
X18151834Y-3927000D01*
X18390819Y-3879462D01*
X18615939Y-3786215D01*
X18818541Y-3650840D01*
X18990840Y-3478541D01*
X19126215Y-3275939D01*
X19219462Y-3050819D01*
X19267000Y-2811834D01*
X19267000Y-2568166D01*
X19219462Y-2329181D01*
X19126215Y-2104061D01*
X18990840Y-1901459D01*
X18818541Y-1729160D01*
X18615939Y-1593785D01*
X18390819Y-1500538D01*
X18151834Y-1453000D01*
X17908166Y-1453000D01*
X17669181Y-1500538D01*
X17444061Y-1593785D01*
X17241459Y-1729160D01*
X17069160Y-1901459D01*
X16933785Y-2104061D01*
X16840538Y-2329181D01*
X16793000Y-2568166D01*
X16564291Y-2568166D01*
X16560599Y-2549610D01*
X16508811Y-2424584D01*
X16487000Y-2391941D01*
X16487000Y-737000D01*
X16791128Y-737000D01*
X16791128Y-1000000D01*
X16798600Y-1075865D01*
X16820729Y-1148815D01*
X16856665Y-1216046D01*
X16905026Y-1274974D01*
X16963954Y-1323335D01*
X17031185Y-1359271D01*
X17104135Y-1381400D01*
X17180000Y-1388872D01*
X18880000Y-1388872D01*
X18955865Y-1381400D01*
X19028815Y-1359271D01*
X19096046Y-1323335D01*
X19154974Y-1274974D01*
X19203335Y-1216046D01*
X19239271Y-1148815D01*
X19261400Y-1075865D01*
X19268872Y-1000000D01*
X19268872Y700000D01*
X19261400Y775865D01*
X19239271Y848815D01*
X19203335Y916046D01*
X19154974Y974974D01*
X19096046Y1023335D01*
X19028815Y1059271D01*
X18955865Y1081400D01*
X18880000Y1088872D01*
X17180000Y1088872D01*
X17104135Y1081400D01*
X17031185Y1059271D01*
X16963954Y1023335D01*
X16905026Y974974D01*
X16856665Y916046D01*
X16820729Y848815D01*
X16798600Y775865D01*
X16791128Y700000D01*
X16791128Y437000D01*
X16028825Y437000D01*
X15999999Y439839D01*
X15971173Y437000D01*
X15971166Y437000D01*
X15884928Y428506D01*
X15774278Y394941D01*
X15672302Y340434D01*
X15582920Y267080D01*
X15564534Y244677D01*
X15505321Y185463D01*
X15482921Y167080D01*
X15409567Y77698D01*
X15355059Y-24278D01*
X15321494Y-134928D01*
X15316365Y-187000D01*
X15310160Y-250000D01*
X15313000Y-278834D01*
X15313000Y-406858D01*
X15306858Y-413000D01*
X13915725Y-413000D01*
X13911480Y-407828D01*
X13842172Y-338520D01*
X13783244Y-290159D01*
X13701745Y-235703D01*
X13634511Y-199766D01*
X13543955Y-162257D01*
X13471007Y-140129D01*
X13374874Y-121007D01*
X13299009Y-113535D01*
X13274449Y-113535D01*
X13250000Y-111127D01*
X12750000Y-111127D01*
X12725551Y-113535D01*
X12700991Y-113535D01*
X12625126Y-121007D01*
X12528993Y-140129D01*
X12456045Y-162257D01*
X12365489Y-199766D01*
X12298255Y-235703D01*
X12216756Y-290159D01*
X12157828Y-338520D01*
X12088520Y-407828D01*
X12040159Y-466756D01*
X11985703Y-548255D01*
X11977822Y-563000D01*
X9628825Y-563000D01*
X9599999Y-560161D01*
X9571173Y-563000D01*
X9571166Y-563000D01*
X9496251Y-570379D01*
X9484927Y-571494D01*
X9464479Y-577697D01*
X9374278Y-605059D01*
X9272302Y-659566D01*
X9182920Y-732920D01*
X9164539Y-755317D01*
X9038115Y-881742D01*
X8999610Y-889401D01*
X8874584Y-941189D01*
X8762063Y-1016372D01*
X8666372Y-1112063D01*
X8591189Y-1224584D01*
X8539401Y-1349610D01*
X8513000Y-1482336D01*
X8513000Y-1617664D01*
X8539401Y-1750390D01*
X8591189Y-1875416D01*
X8666372Y-1987937D01*
X8762063Y-2083628D01*
X8874584Y-2158811D01*
X8999610Y-2210599D01*
X9132336Y-2237000D01*
X9267664Y-2237000D01*
X9400390Y-2210599D01*
X9525416Y-2158811D01*
X9637937Y-2083628D01*
X9733628Y-1987937D01*
X9808811Y-1875416D01*
X9860599Y-1750390D01*
X9863262Y-1737000D01*
X11867332Y-1737000D01*
X11861127Y-1800000D01*
X11861127Y-2300000D01*
X11863535Y-2324449D01*
X11863535Y-2349009D01*
X11871007Y-2424874D01*
X11890129Y-2521007D01*
X11912257Y-2593955D01*
X11949766Y-2684511D01*
X11985703Y-2751745D01*
X12040159Y-2833244D01*
X12088520Y-2892172D01*
X12157828Y-2961480D01*
X12216756Y-3009841D01*
X12298255Y-3064297D01*
X12313000Y-3072178D01*
X12313001Y-6361128D01*
X11650000Y-6361128D01*
X11574135Y-6368600D01*
X11501185Y-6390729D01*
X11433954Y-6426665D01*
X11375026Y-6475026D01*
X11326665Y-6533954D01*
X11290729Y-6601185D01*
X11268600Y-6674135D01*
X11261128Y-6750000D01*
X11261128Y-7963000D01*
X7738872Y-7963000D01*
X7738872Y-7900000D01*
X7731400Y-7824135D01*
X7709271Y-7751185D01*
X7673335Y-7683954D01*
X7624974Y-7625026D01*
X7566046Y-7576665D01*
X7498815Y-7540729D01*
X7425865Y-7518600D01*
X7350000Y-7511128D01*
X5350000Y-7511128D01*
X5274135Y-7518600D01*
X5201185Y-7540729D01*
X5133954Y-7576665D01*
X5075026Y-7625026D01*
X5026665Y-7683954D01*
X4990729Y-7751185D01*
X4968600Y-7824135D01*
X4961128Y-7900000D01*
X3187000Y-7900000D01*
X3187000Y-7782336D01*
X3160599Y-7649610D01*
X3108811Y-7524584D01*
X3087000Y-7491941D01*
X3087000Y-5608059D01*
X3108811Y-5575416D01*
X3160599Y-5450390D01*
X3187000Y-5317664D01*
X3187000Y-5182336D01*
X3160599Y-5049610D01*
X3108811Y-4924584D01*
X3087000Y-4891941D01*
X3087000Y-3008059D01*
X3108811Y-2975416D01*
X3160599Y-2850390D01*
X3187000Y-2717664D01*
X3187000Y-2582336D01*
X3160599Y-2449610D01*
X3108811Y-2324584D01*
X3087000Y-2291941D01*
X3087000Y-1587000D01*
X4371977Y-1587000D01*
X4390728Y-1648815D01*
X4391361Y-1650000D01*
X4390728Y-1651185D01*
X4368599Y-1724135D01*
X4361127Y-1800000D01*
X4361127Y-2300000D01*
X4363535Y-2324449D01*
X4363535Y-2349009D01*
X4371007Y-2424874D01*
X4390129Y-2521007D01*
X4412257Y-2593955D01*
X4449766Y-2684511D01*
X4485703Y-2751745D01*
X4540159Y-2833244D01*
X4588520Y-2892172D01*
X4657828Y-2961480D01*
X4716756Y-3009841D01*
X4798255Y-3064297D01*
X4813001Y-3072179D01*
X4813001Y-3466241D01*
X4813000Y-3466251D01*
X4809676Y-3500000D01*
X4813000Y-3533745D01*
X4813001Y-5466245D01*
X4809676Y-5500000D01*
X4813001Y-5533750D01*
X4822941Y-5634676D01*
X4839098Y-5687937D01*
X4862224Y-5764175D01*
X4926016Y-5883523D01*
X4961128Y-5926307D01*
X4961128Y-7100000D01*
X4968600Y-7175865D01*
X4990729Y-7248815D01*
X5026665Y-7316046D01*
X5075026Y-7374974D01*
X5133954Y-7423335D01*
X5201185Y-7459271D01*
X5274135Y-7481400D01*
X5350000Y-7488872D01*
X7350000Y-7488872D01*
X7425865Y-7481400D01*
X7498815Y-7459271D01*
X7566046Y-7423335D01*
X7624974Y-7374974D01*
X7673335Y-7316046D01*
X7709271Y-7248815D01*
X7731400Y-7175865D01*
X7738872Y-7100000D01*
X7738872Y-5600000D01*
X7731400Y-5524135D01*
X7709271Y-5451185D01*
X7673335Y-5383954D01*
X7624974Y-5325026D01*
X7566046Y-5276665D01*
X7498815Y-5240729D01*
X7425865Y-5218600D01*
X7350000Y-5211128D01*
X6187000Y-5211128D01*
X6187000Y-4337000D01*
X7730842Y-4337000D01*
X7734283Y-4348344D01*
X7792744Y-4457716D01*
X7871419Y-4553581D01*
X7967284Y-4632256D01*
X8076656Y-4690717D01*
X8195332Y-4726716D01*
X8318750Y-4738872D01*
X8806250Y-4738872D01*
X8929668Y-4726716D01*
X9048344Y-4690717D01*
X9157716Y-4632256D01*
X9253581Y-4553581D01*
X9332256Y-4457716D01*
X9390717Y-4348344D01*
X9426716Y-4229668D01*
X9438872Y-4106250D01*
X9438872Y-3193750D01*
X9426716Y-3070332D01*
X9390717Y-2951656D01*
X9332256Y-2842284D01*
X9253581Y-2746419D01*
X9157716Y-2667744D01*
X9048344Y-2609283D01*
X8929668Y-2573284D01*
X8806250Y-2561128D01*
X8318750Y-2561128D01*
X8195332Y-2573284D01*
X8076656Y-2609283D01*
X7967284Y-2667744D01*
X7871419Y-2746419D01*
X7792744Y-2842284D01*
X7734283Y-2951656D01*
X7730842Y-2963000D01*
X6340320Y-2963000D01*
X6342172Y-2961480D01*
X6411480Y-2892172D01*
X6456759Y-2837000D01*
X6823632Y-2837000D01*
X6850000Y-2839597D01*
X6876368Y-2837000D01*
X6876378Y-2837000D01*
X6955270Y-2829230D01*
X7056495Y-2798524D01*
X7149785Y-2748659D01*
X7231553Y-2681553D01*
X7248368Y-2661064D01*
X7361064Y-2548368D01*
X7381553Y-2531553D01*
X7448659Y-2449785D01*
X7498524Y-2356495D01*
X7529230Y-2255270D01*
X7537000Y-2176378D01*
X7537000Y-2176369D01*
X7539597Y-2150001D01*
X7537000Y-2123633D01*
X7537000Y-676371D01*
X7539597Y-650000D01*
X7537000Y-623629D01*
X7537000Y-623622D01*
X7529230Y-544730D01*
X7498524Y-443505D01*
X7498524Y-443504D01*
X7448659Y-350215D01*
X7398368Y-288936D01*
X7381553Y-268447D01*
X7361064Y-251632D01*
X6946432Y163000D01*
X7067664Y163000D01*
X7200390Y189401D01*
X7325416Y241189D01*
X7432890Y313000D01*
X12973632Y313000D01*
X13000000Y310403D01*
X13026368Y313000D01*
X13026378Y313000D01*
X13105270Y320770D01*
X13206495Y351476D01*
X13299785Y401341D01*
X13381553Y468447D01*
X13398368Y488936D01*
X13573616Y664184D01*
X13700390Y689401D01*
X13825416Y741189D01*
X13937937Y816372D01*
X14033628Y912063D01*
X14108811Y1024584D01*
X14160599Y1149610D01*
X14187000Y1282336D01*
X14187000Y1417664D01*
X14160599Y1550390D01*
X14108811Y1675416D01*
X14033628Y1787937D01*
X13937937Y1883628D01*
X13825416Y1958811D01*
X13700390Y2010599D01*
X13567664Y2037000D01*
X13432336Y2037000D01*
X13299610Y2010599D01*
X13174584Y1958811D01*
X13062063Y1883628D01*
X12966372Y1787937D01*
X12891189Y1675416D01*
X12839401Y1550390D01*
X12814184Y1423616D01*
X12777568Y1387000D01*
X7432890Y1387000D01*
X7325416Y1458811D01*
X7200390Y1510599D01*
X7067664Y1537000D01*
X6932336Y1537000D01*
X6799610Y1510599D01*
X6674584Y1458811D01*
X6562063Y1383628D01*
X6466372Y1287937D01*
X6391189Y1175416D01*
X6339401Y1050390D01*
X6313000Y917664D01*
X6313000Y787814D01*
X6299785Y798659D01*
X6206495Y848524D01*
X6105270Y879230D01*
X6026378Y887000D01*
X6026368Y887000D01*
X6000000Y889597D01*
X5973632Y887000D01*
X3722433Y887000D01*
X3685816Y923617D01*
X3660599Y1050390D01*
X3608811Y1175416D01*
X3533628Y1287937D01*
X3437937Y1383628D01*
X3325416Y1458811D01*
X3200390Y1510599D01*
X3067664Y1537000D01*
X2932336Y1537000D01*
X2799610Y1510599D01*
X2674584Y1458811D01*
X2562063Y1383628D01*
X2466372Y1287937D01*
X2391189Y1175416D01*
X2339401Y1050390D01*
X2313000Y917664D01*
X2313000Y782336D01*
X2339401Y649610D01*
X2391189Y524584D01*
X2466372Y412063D01*
X2562063Y316372D01*
X2674584Y241189D01*
X2799610Y189401D01*
X2926383Y164184D01*
X3101636Y-11069D01*
X3118447Y-31553D01*
X3138931Y-48364D01*
X3138935Y-48368D01*
X3200215Y-98659D01*
X3293505Y-148524D01*
X3394730Y-179230D01*
X3473622Y-187000D01*
X3473632Y-187000D01*
X3500000Y-189597D01*
X3526368Y-187000D01*
X4896309Y-187000D01*
X4865489Y-199766D01*
X4798255Y-235703D01*
X4716756Y-290159D01*
X4657828Y-338520D01*
X4588520Y-407828D01*
X4584275Y-413000D01*
X2993142Y-413000D01*
X2935468Y-355326D01*
X2917080Y-332920D01*
X2894684Y-314540D01*
X2335468Y244674D01*
X2317080Y267080D01*
X2227698Y340434D01*
X2125722Y394941D01*
X2015072Y428506D01*
X1928834Y437000D01*
X1900000Y439840D01*
X1871166Y437000D01*
X1488872Y437000D01*
X1488872Y700000D01*
X1481400Y775865D01*
X1459271Y848815D01*
X1423335Y916046D01*
X1374974Y974974D01*
X1316046Y1023335D01*
X1248815Y1059271D01*
X1175865Y1081400D01*
X1100000Y1088872D01*
X-600000Y1088872D01*
X-675865Y1081400D01*
X-748815Y1059271D01*
X-816046Y1023335D01*
X-874974Y974974D01*
X-923335Y916046D01*
X-959271Y848815D01*
X-981400Y775865D01*
X-988872Y700000D01*
X-2088000Y700000D01*
X-2088000Y1479846D01*
X-2074863Y1613826D01*
X-2041806Y1723316D01*
X-1988110Y1824304D01*
X-1915826Y1912933D01*
X-1827703Y1985834D01*
X-1727094Y2040234D01*
X-1617836Y2074055D01*
X-1485159Y2088000D01*
X19479846Y2088000D01*
X19613826Y2074863D01*
G04 #@! TA.AperFunction,Conductor*
D21*
G36*
X19613826Y2074863D02*
G01*
X19723316Y2041806D01*
X19824304Y1988110D01*
X19912933Y1915826D01*
X19985834Y1827703D01*
X20040234Y1727094D01*
X20074055Y1617836D01*
X20088000Y1485159D01*
X20088001Y-19479836D01*
X20074863Y-19613826D01*
X20041805Y-19723319D01*
X19988111Y-19824303D01*
X19915827Y-19912931D01*
X19827700Y-19985837D01*
X19727093Y-20040234D01*
X19617836Y-20074055D01*
X19485159Y-20088000D01*
X-1479847Y-20088000D01*
X-1613826Y-20074863D01*
X-1723319Y-20041805D01*
X-1824303Y-19988111D01*
X-1912931Y-19915827D01*
X-1985837Y-19827700D01*
X-2040234Y-19727093D01*
X-2074055Y-19617836D01*
X-2088000Y-19485159D01*
X-2088000Y-15268166D01*
X-987000Y-15268166D01*
X-987000Y-15511834D01*
X-939462Y-15750819D01*
X-846215Y-15975939D01*
X-710840Y-16178541D01*
X-538541Y-16350840D01*
X-335939Y-16486215D01*
X-110819Y-16579462D01*
X128166Y-16627000D01*
X371834Y-16627000D01*
X610819Y-16579462D01*
X835939Y-16486215D01*
X1038541Y-16350840D01*
X1210840Y-16178541D01*
X1346215Y-15975939D01*
X1439462Y-15750819D01*
X1487000Y-15511834D01*
X1487000Y-15268166D01*
X1439462Y-15029181D01*
X1346215Y-14804061D01*
X1210840Y-14601459D01*
X1038541Y-14429160D01*
X835939Y-14293785D01*
X610819Y-14200538D01*
X371834Y-14153000D01*
X128166Y-14153000D01*
X-110819Y-14200538D01*
X-335939Y-14293785D01*
X-538541Y-14429160D01*
X-710840Y-14601459D01*
X-846215Y-14804061D01*
X-939462Y-15029181D01*
X-987000Y-15268166D01*
X-2088000Y-15268166D01*
X-2088000Y-12728166D01*
X-987000Y-12728166D01*
X-987000Y-12971834D01*
X-939462Y-13210819D01*
X-846215Y-13435939D01*
X-710840Y-13638541D01*
X-538541Y-13810840D01*
X-335939Y-13946215D01*
X-110819Y-14039462D01*
X128166Y-14087000D01*
X371834Y-14087000D01*
X610819Y-14039462D01*
X835939Y-13946215D01*
X1038541Y-13810840D01*
X1210840Y-13638541D01*
X1346215Y-13435939D01*
X1439462Y-13210819D01*
X1487000Y-12971834D01*
X1487000Y-12728166D01*
X1439462Y-12489181D01*
X1346215Y-12264061D01*
X1210840Y-12061459D01*
X1038541Y-11889160D01*
X835939Y-11753785D01*
X610819Y-11660538D01*
X371834Y-11613000D01*
X128166Y-11613000D01*
X-110819Y-11660538D01*
X-335939Y-11753785D01*
X-538541Y-11889160D01*
X-710840Y-12061459D01*
X-846215Y-12264061D01*
X-939462Y-12489181D01*
X-987000Y-12728166D01*
X-2088000Y-12728166D01*
X-2088000Y-10188166D01*
X-987000Y-10188166D01*
X-987000Y-10431834D01*
X-939462Y-10670819D01*
X-846215Y-10895939D01*
X-710840Y-11098541D01*
X-538541Y-11270840D01*
X-335939Y-11406215D01*
X-110819Y-11499462D01*
X128166Y-11547000D01*
X371834Y-11547000D01*
X610819Y-11499462D01*
X835939Y-11406215D01*
X1038541Y-11270840D01*
X1210840Y-11098541D01*
X1346215Y-10895939D01*
X1439462Y-10670819D01*
X1487000Y-10431834D01*
X1487000Y-10188166D01*
X1439462Y-9949181D01*
X1346215Y-9724061D01*
X1210840Y-9521459D01*
X1038541Y-9349160D01*
X835939Y-9213785D01*
X610819Y-9120538D01*
X371834Y-9073000D01*
X128166Y-9073000D01*
X-110819Y-9120538D01*
X-335939Y-9213785D01*
X-538541Y-9349160D01*
X-710840Y-9521459D01*
X-846215Y-9724061D01*
X-939462Y-9949181D01*
X-987000Y-10188166D01*
X-2088000Y-10188166D01*
X-2088000Y-7648166D01*
X-987000Y-7648166D01*
X-987000Y-7891834D01*
X-939462Y-8130819D01*
X-846215Y-8355939D01*
X-710840Y-8558541D01*
X-538541Y-8730840D01*
X-335939Y-8866215D01*
X-110819Y-8959462D01*
X128166Y-9007000D01*
X371834Y-9007000D01*
X610819Y-8959462D01*
X835939Y-8866215D01*
X1038541Y-8730840D01*
X1210840Y-8558541D01*
X1346215Y-8355939D01*
X1439462Y-8130819D01*
X1487000Y-7891834D01*
X1487000Y-7648166D01*
X1439462Y-7409181D01*
X1346215Y-7184061D01*
X1210840Y-6981459D01*
X1038541Y-6809160D01*
X835939Y-6673785D01*
X610819Y-6580538D01*
X371834Y-6533000D01*
X128166Y-6533000D01*
X-110819Y-6580538D01*
X-335939Y-6673785D01*
X-538541Y-6809160D01*
X-710840Y-6981459D01*
X-846215Y-7184061D01*
X-939462Y-7409181D01*
X-987000Y-7648166D01*
X-2088000Y-7648166D01*
X-2088000Y-5108166D01*
X-987000Y-5108166D01*
X-987000Y-5351834D01*
X-939462Y-5590819D01*
X-846215Y-5815939D01*
X-710840Y-6018541D01*
X-538541Y-6190840D01*
X-335939Y-6326215D01*
X-110819Y-6419462D01*
X128166Y-6467000D01*
X371834Y-6467000D01*
X610819Y-6419462D01*
X835939Y-6326215D01*
X1038541Y-6190840D01*
X1210840Y-6018541D01*
X1346215Y-5815939D01*
X1439462Y-5590819D01*
X1487000Y-5351834D01*
X1487000Y-5108166D01*
X1439462Y-4869181D01*
X1346215Y-4644061D01*
X1210840Y-4441459D01*
X1038541Y-4269160D01*
X835939Y-4133785D01*
X610819Y-4040538D01*
X371834Y-3993000D01*
X128166Y-3993000D01*
X-110819Y-4040538D01*
X-335939Y-4133785D01*
X-538541Y-4269160D01*
X-710840Y-4441459D01*
X-846215Y-4644061D01*
X-939462Y-4869181D01*
X-987000Y-5108166D01*
X-2088000Y-5108166D01*
X-2088000Y-2568166D01*
X-987000Y-2568166D01*
X-987000Y-2811834D01*
X-939462Y-3050819D01*
X-846215Y-3275939D01*
X-710840Y-3478541D01*
X-538541Y-3650840D01*
X-335939Y-3786215D01*
X-110819Y-3879462D01*
X128166Y-3927000D01*
X371834Y-3927000D01*
X610819Y-3879462D01*
X835939Y-3786215D01*
X1038541Y-3650840D01*
X1210840Y-3478541D01*
X1346215Y-3275939D01*
X1439462Y-3050819D01*
X1487000Y-2811834D01*
X1487000Y-2568166D01*
X1439462Y-2329181D01*
X1346215Y-2104061D01*
X1210840Y-1901459D01*
X1038541Y-1729160D01*
X835939Y-1593785D01*
X610819Y-1500538D01*
X371834Y-1453000D01*
X128166Y-1453000D01*
X-110819Y-1500538D01*
X-335939Y-1593785D01*
X-538541Y-1729160D01*
X-710840Y-1901459D01*
X-846215Y-2104061D01*
X-939462Y-2329181D01*
X-987000Y-2568166D01*
X-2088000Y-2568166D01*
X-2088000Y700000D01*
X-988872Y700000D01*
X-988872Y-1000000D01*
X-981400Y-1075865D01*
X-959271Y-1148815D01*
X-923335Y-1216046D01*
X-874974Y-1274974D01*
X-816046Y-1323335D01*
X-748815Y-1359271D01*
X-675865Y-1381400D01*
X-600000Y-1388872D01*
X1100000Y-1388872D01*
X1175865Y-1381400D01*
X1248815Y-1359271D01*
X1316046Y-1323335D01*
X1374974Y-1274974D01*
X1423335Y-1216046D01*
X1459271Y-1148815D01*
X1481400Y-1075865D01*
X1488872Y-1000000D01*
X1488872Y-737000D01*
X1656857Y-737000D01*
X1913000Y-993144D01*
X1913001Y-2291940D01*
X1891189Y-2324584D01*
X1839401Y-2449610D01*
X1813000Y-2582336D01*
X1813000Y-2717664D01*
X1839401Y-2850390D01*
X1891189Y-2975416D01*
X1913000Y-3008059D01*
X1913001Y-4891940D01*
X1891189Y-4924584D01*
X1839401Y-5049610D01*
X1813000Y-5182336D01*
X1813000Y-5317664D01*
X1839401Y-5450390D01*
X1891189Y-5575416D01*
X1913000Y-5608059D01*
X1913001Y-7491940D01*
X1891189Y-7524584D01*
X1839401Y-7649610D01*
X1813000Y-7782336D01*
X1813000Y-7917664D01*
X1839401Y-8050390D01*
X1891189Y-8175416D01*
X1913000Y-8208059D01*
X1913001Y-9891940D01*
X1891189Y-9924584D01*
X1839401Y-10049610D01*
X1813000Y-10182336D01*
X1813000Y-10317664D01*
X1839401Y-10450390D01*
X1891189Y-10575416D01*
X1913000Y-10608059D01*
X1913001Y-12391940D01*
X1891189Y-12424584D01*
X1839401Y-12549610D01*
X1813000Y-12682336D01*
X1813000Y-12817664D01*
X1839401Y-12950390D01*
X1891189Y-13075416D01*
X1913000Y-13108059D01*
X1913001Y-14991940D01*
X1891189Y-15024584D01*
X1839401Y-15149610D01*
X1813000Y-15282336D01*
X1813000Y-15417664D01*
X1839401Y-15550390D01*
X1891189Y-15675416D01*
X1966372Y-15787937D01*
X2062063Y-15883628D01*
X2174584Y-15958811D01*
X2299610Y-16010599D01*
X2432336Y-16037000D01*
X2567664Y-16037000D01*
X2700390Y-16010599D01*
X2825416Y-15958811D01*
X2937937Y-15883628D01*
X3033628Y-15787937D01*
X3108811Y-15675416D01*
X3160599Y-15550390D01*
X3187000Y-15417664D01*
X3187000Y-15282336D01*
X3160599Y-15149610D01*
X3108811Y-15024584D01*
X3087000Y-14991941D01*
X3087000Y-13108059D01*
X3108811Y-13075416D01*
X3160599Y-12950390D01*
X3187000Y-12817664D01*
X3187000Y-12682336D01*
X3160599Y-12549610D01*
X3108811Y-12424584D01*
X3087000Y-12391941D01*
X3087000Y-10608059D01*
X3108811Y-10575416D01*
X3160599Y-10450390D01*
X3187000Y-10317664D01*
X3187000Y-10182336D01*
X3160599Y-10049610D01*
X3108811Y-9924584D01*
X3087000Y-9891941D01*
X3087000Y-8208059D01*
X3108811Y-8175416D01*
X3160599Y-8050390D01*
X3187000Y-7917664D01*
X3187000Y-7900000D01*
X4961128Y-7900000D01*
X4961128Y-9400000D01*
X4968600Y-9475865D01*
X4990729Y-9548815D01*
X5026665Y-9616046D01*
X5075026Y-9674974D01*
X5133954Y-9723335D01*
X5201185Y-9759271D01*
X5274135Y-9781400D01*
X5350000Y-9788872D01*
X7350000Y-9788872D01*
X7425865Y-9781400D01*
X7498815Y-9759271D01*
X7566046Y-9723335D01*
X7624974Y-9674974D01*
X7673335Y-9616046D01*
X7709271Y-9548815D01*
X7731400Y-9475865D01*
X7738872Y-9400000D01*
X7738872Y-9337000D01*
X11261128Y-9337000D01*
X11261128Y-10550000D01*
X11268600Y-10625865D01*
X11290729Y-10698815D01*
X11326665Y-10766046D01*
X11375026Y-10824974D01*
X11433954Y-10873335D01*
X11501185Y-10909271D01*
X11574135Y-10931400D01*
X11650000Y-10938872D01*
X11963000Y-10938872D01*
X11963000Y-12215435D01*
X11252154Y-12926282D01*
X11207256Y-12842284D01*
X11128581Y-12746419D01*
X11032716Y-12667744D01*
X10923344Y-12609283D01*
X10804668Y-12573284D01*
X10681250Y-12561128D01*
X10193750Y-12561128D01*
X10070332Y-12573284D01*
X9951656Y-12609283D01*
X9842284Y-12667744D01*
X9746419Y-12746419D01*
X9667744Y-12842284D01*
X9609283Y-12951656D01*
X9573284Y-13070332D01*
X9561128Y-13193750D01*
X9561128Y-14106250D01*
X9573284Y-14229668D01*
X9609283Y-14348344D01*
X9667744Y-14457716D01*
X9746419Y-14553581D01*
X9842284Y-14632256D01*
X9951656Y-14690717D01*
X10070332Y-14726716D01*
X10193750Y-14738872D01*
X10681250Y-14738872D01*
X10804668Y-14726716D01*
X10923344Y-14690717D01*
X11032716Y-14632256D01*
X11128581Y-14553581D01*
X11207256Y-14457716D01*
X11265717Y-14348344D01*
X11269158Y-14337000D01*
X11466255Y-14337000D01*
X11500000Y-14340324D01*
X11533745Y-14337000D01*
X11533750Y-14337000D01*
X11634676Y-14327060D01*
X11764176Y-14287776D01*
X11805747Y-14265555D01*
X11883523Y-14223984D01*
X11932143Y-14184082D01*
X11988133Y-14138133D01*
X12009650Y-14111914D01*
X13111924Y-13009641D01*
X13138132Y-12988133D01*
X13159642Y-12961923D01*
X13159647Y-12961918D01*
X13223984Y-12883524D01*
X13279941Y-12778834D01*
X13287776Y-12764176D01*
X13327060Y-12634676D01*
X13337000Y-12533750D01*
X13337000Y-12533748D01*
X13340324Y-12500000D01*
X13337000Y-12466253D01*
X13337000Y-10938872D01*
X13650000Y-10938872D01*
X13725865Y-10931400D01*
X13798815Y-10909271D01*
X13866046Y-10873335D01*
X13924974Y-10824974D01*
X13973335Y-10766046D01*
X14009271Y-10698815D01*
X14031400Y-10625865D01*
X14038872Y-10550000D01*
X14038872Y-6750000D01*
X14031400Y-6674135D01*
X14009271Y-6601185D01*
X13973335Y-6533954D01*
X13924974Y-6475026D01*
X13866046Y-6426665D01*
X13798815Y-6390729D01*
X13725865Y-6368600D01*
X13687000Y-6364772D01*
X13687000Y-3072178D01*
X13701745Y-3064297D01*
X13783244Y-3009841D01*
X13842172Y-2961480D01*
X13911480Y-2892172D01*
X13959841Y-2833244D01*
X14014297Y-2751745D01*
X14050234Y-2684511D01*
X14087743Y-2593955D01*
X14109871Y-2521007D01*
X14128993Y-2424874D01*
X14136465Y-2349009D01*
X14136465Y-2324449D01*
X14138873Y-2300000D01*
X14138873Y-1800000D01*
X14131401Y-1724135D01*
X14109272Y-1651185D01*
X14108639Y-1650000D01*
X14109272Y-1648815D01*
X14128023Y-1587000D01*
X15313001Y-1587000D01*
X15313000Y-2391941D01*
X15291189Y-2424584D01*
X15239401Y-2549610D01*
X15213000Y-2682336D01*
X15213000Y-2817664D01*
X15239401Y-2950390D01*
X15291189Y-3075416D01*
X15313001Y-3108060D01*
X15313000Y-4891941D01*
X15291189Y-4924584D01*
X15239401Y-5049610D01*
X15213000Y-5182336D01*
X15213000Y-5317664D01*
X15239401Y-5450390D01*
X15291189Y-5575416D01*
X15313001Y-5608060D01*
X15313000Y-7391941D01*
X15291189Y-7424584D01*
X15239401Y-7549610D01*
X15213000Y-7682336D01*
X15213000Y-7817664D01*
X15239401Y-7950390D01*
X15291189Y-8075416D01*
X15313001Y-8108060D01*
X15313000Y-9991941D01*
X15291189Y-10024584D01*
X15239401Y-10149610D01*
X15213000Y-10282336D01*
X15213000Y-10417664D01*
X15239401Y-10550390D01*
X15291189Y-10675416D01*
X15313001Y-10708060D01*
X15313000Y-12491941D01*
X15291189Y-12524584D01*
X15239401Y-12649610D01*
X15213000Y-12782336D01*
X15213000Y-12917664D01*
X15239401Y-13050390D01*
X15291189Y-13175416D01*
X15313001Y-13208060D01*
X15313000Y-14991941D01*
X15291189Y-15024584D01*
X15239401Y-15149610D01*
X15213000Y-15282336D01*
X15213000Y-15417664D01*
X15239401Y-15550390D01*
X15291189Y-15675416D01*
X15366372Y-15787937D01*
X15462063Y-15883628D01*
X15574584Y-15958811D01*
X15699610Y-16010599D01*
X15832336Y-16037000D01*
X15967664Y-16037000D01*
X16100390Y-16010599D01*
X16225416Y-15958811D01*
X16337937Y-15883628D01*
X16433628Y-15787937D01*
X16508811Y-15675416D01*
X16560599Y-15550390D01*
X16587000Y-15417664D01*
X16587000Y-15282336D01*
X16584182Y-15268166D01*
X16793000Y-15268166D01*
X16793000Y-15511834D01*
X16840538Y-15750819D01*
X16933785Y-15975939D01*
X17069160Y-16178541D01*
X17241459Y-16350840D01*
X17444061Y-16486215D01*
X17669181Y-16579462D01*
X17908166Y-16627000D01*
X18151834Y-16627000D01*
X18390819Y-16579462D01*
X18615939Y-16486215D01*
X18818541Y-16350840D01*
X18990840Y-16178541D01*
X19126215Y-15975939D01*
X19219462Y-15750819D01*
X19267000Y-15511834D01*
X19267000Y-15268166D01*
X19219462Y-15029181D01*
X19126215Y-14804061D01*
X18990840Y-14601459D01*
X18818541Y-14429160D01*
X18615939Y-14293785D01*
X18390819Y-14200538D01*
X18151834Y-14153000D01*
X17908166Y-14153000D01*
X17669181Y-14200538D01*
X17444061Y-14293785D01*
X17241459Y-14429160D01*
X17069160Y-14601459D01*
X16933785Y-14804061D01*
X16840538Y-15029181D01*
X16793000Y-15268166D01*
X16584182Y-15268166D01*
X16560599Y-15149610D01*
X16508811Y-15024584D01*
X16487000Y-14991941D01*
X16487000Y-13208059D01*
X16508811Y-13175416D01*
X16560599Y-13050390D01*
X16587000Y-12917664D01*
X16587000Y-12782336D01*
X16576225Y-12728166D01*
X16793000Y-12728166D01*
X16793000Y-12971834D01*
X16840538Y-13210819D01*
X16933785Y-13435939D01*
X17069160Y-13638541D01*
X17241459Y-13810840D01*
X17444061Y-13946215D01*
X17669181Y-14039462D01*
X17908166Y-14087000D01*
X18151834Y-14087000D01*
X18390819Y-14039462D01*
X18615939Y-13946215D01*
X18818541Y-13810840D01*
X18990840Y-13638541D01*
X19126215Y-13435939D01*
X19219462Y-13210819D01*
X19267000Y-12971834D01*
X19267000Y-12728166D01*
X19219462Y-12489181D01*
X19126215Y-12264061D01*
X18990840Y-12061459D01*
X18818541Y-11889160D01*
X18615939Y-11753785D01*
X18390819Y-11660538D01*
X18151834Y-11613000D01*
X17908166Y-11613000D01*
X17669181Y-11660538D01*
X17444061Y-11753785D01*
X17241459Y-11889160D01*
X17069160Y-12061459D01*
X16933785Y-12264061D01*
X16840538Y-12489181D01*
X16793000Y-12728166D01*
X16576225Y-12728166D01*
X16560599Y-12649610D01*
X16508811Y-12524584D01*
X16487000Y-12491941D01*
X16487000Y-10708059D01*
X16508811Y-10675416D01*
X16560599Y-10550390D01*
X16587000Y-10417664D01*
X16587000Y-10282336D01*
X16568269Y-10188166D01*
X16793000Y-10188166D01*
X16793000Y-10431834D01*
X16840538Y-10670819D01*
X16933785Y-10895939D01*
X17069160Y-11098541D01*
X17241459Y-11270840D01*
X17444061Y-11406215D01*
X17669181Y-11499462D01*
X17908166Y-11547000D01*
X18151834Y-11547000D01*
X18390819Y-11499462D01*
X18615939Y-11406215D01*
X18818541Y-11270840D01*
X18990840Y-11098541D01*
X19126215Y-10895939D01*
X19219462Y-10670819D01*
X19267000Y-10431834D01*
X19267000Y-10188166D01*
X19219462Y-9949181D01*
X19126215Y-9724061D01*
X18990840Y-9521459D01*
X18818541Y-9349160D01*
X18615939Y-9213785D01*
X18390819Y-9120538D01*
X18151834Y-9073000D01*
X17908166Y-9073000D01*
X17669181Y-9120538D01*
X17444061Y-9213785D01*
X17241459Y-9349160D01*
X17069160Y-9521459D01*
X16933785Y-9724061D01*
X16840538Y-9949181D01*
X16793000Y-10188166D01*
X16568269Y-10188166D01*
X16560599Y-10149610D01*
X16508811Y-10024584D01*
X16487000Y-9991941D01*
X16487000Y-8108059D01*
X16508811Y-8075416D01*
X16560599Y-7950390D01*
X16587000Y-7817664D01*
X16587000Y-7682336D01*
X16580204Y-7648166D01*
X16793000Y-7648166D01*
X16793000Y-7891834D01*
X16840538Y-8130819D01*
X16933785Y-8355939D01*
X17069160Y-8558541D01*
X17241459Y-8730840D01*
X17444061Y-8866215D01*
X17669181Y-8959462D01*
X17908166Y-9007000D01*
X18151834Y-9007000D01*
X18390819Y-8959462D01*
X18615939Y-8866215D01*
X18818541Y-8730840D01*
X18990840Y-8558541D01*
X19126215Y-8355939D01*
X19219462Y-8130819D01*
X19267000Y-7891834D01*
X19267000Y-7648166D01*
X19219462Y-7409181D01*
X19126215Y-7184061D01*
X18990840Y-6981459D01*
X18818541Y-6809160D01*
X18615939Y-6673785D01*
X18390819Y-6580538D01*
X18151834Y-6533000D01*
X17908166Y-6533000D01*
X17669181Y-6580538D01*
X17444061Y-6673785D01*
X17241459Y-6809160D01*
X17069160Y-6981459D01*
X16933785Y-7184061D01*
X16840538Y-7409181D01*
X16793000Y-7648166D01*
X16580204Y-7648166D01*
X16560599Y-7549610D01*
X16508811Y-7424584D01*
X16487000Y-7391941D01*
X16487000Y-5608059D01*
X16508811Y-5575416D01*
X16560599Y-5450390D01*
X16587000Y-5317664D01*
X16587000Y-5182336D01*
X16572247Y-5108166D01*
X16793000Y-5108166D01*
X16793000Y-5351834D01*
X16840538Y-5590819D01*
X16933785Y-5815939D01*
X17069160Y-6018541D01*
X17241459Y-6190840D01*
X17444061Y-6326215D01*
X17669181Y-6419462D01*
X17908166Y-6467000D01*
X18151834Y-6467000D01*
X18390819Y-6419462D01*
X18615939Y-6326215D01*
X18818541Y-6190840D01*
X18990840Y-6018541D01*
X19126215Y-5815939D01*
X19219462Y-5590819D01*
X19267000Y-5351834D01*
X19267000Y-5108166D01*
X19219462Y-4869181D01*
X19126215Y-4644061D01*
X18990840Y-4441459D01*
X18818541Y-4269160D01*
X18615939Y-4133785D01*
X18390819Y-4040538D01*
X18151834Y-3993000D01*
X17908166Y-3993000D01*
X17669181Y-4040538D01*
X17444061Y-4133785D01*
X17241459Y-4269160D01*
X17069160Y-4441459D01*
X16933785Y-4644061D01*
X16840538Y-4869181D01*
X16793000Y-5108166D01*
X16572247Y-5108166D01*
X16560599Y-5049610D01*
X16508811Y-4924584D01*
X16487000Y-4891941D01*
X16487000Y-3108059D01*
X16508811Y-3075416D01*
X16560599Y-2950390D01*
X16587000Y-2817664D01*
X16587000Y-2682336D01*
X16564291Y-2568166D01*
X16793000Y-2568166D01*
X16793000Y-2811834D01*
X16840538Y-3050819D01*
X16933785Y-3275939D01*
X17069160Y-3478541D01*
X17241459Y-3650840D01*
X17444061Y-3786215D01*
X17669181Y-3879462D01*
X17908166Y-3927000D01*
X18151834Y-3927000D01*
X18390819Y-3879462D01*
X18615939Y-3786215D01*
X18818541Y-3650840D01*
X18990840Y-3478541D01*
X19126215Y-3275939D01*
X19219462Y-3050819D01*
X19267000Y-2811834D01*
X19267000Y-2568166D01*
X19219462Y-2329181D01*
X19126215Y-2104061D01*
X18990840Y-1901459D01*
X18818541Y-1729160D01*
X18615939Y-1593785D01*
X18390819Y-1500538D01*
X18151834Y-1453000D01*
X17908166Y-1453000D01*
X17669181Y-1500538D01*
X17444061Y-1593785D01*
X17241459Y-1729160D01*
X17069160Y-1901459D01*
X16933785Y-2104061D01*
X16840538Y-2329181D01*
X16793000Y-2568166D01*
X16564291Y-2568166D01*
X16560599Y-2549610D01*
X16508811Y-2424584D01*
X16487000Y-2391941D01*
X16487000Y-737000D01*
X16791128Y-737000D01*
X16791128Y-1000000D01*
X16798600Y-1075865D01*
X16820729Y-1148815D01*
X16856665Y-1216046D01*
X16905026Y-1274974D01*
X16963954Y-1323335D01*
X17031185Y-1359271D01*
X17104135Y-1381400D01*
X17180000Y-1388872D01*
X18880000Y-1388872D01*
X18955865Y-1381400D01*
X19028815Y-1359271D01*
X19096046Y-1323335D01*
X19154974Y-1274974D01*
X19203335Y-1216046D01*
X19239271Y-1148815D01*
X19261400Y-1075865D01*
X19268872Y-1000000D01*
X19268872Y700000D01*
X19261400Y775865D01*
X19239271Y848815D01*
X19203335Y916046D01*
X19154974Y974974D01*
X19096046Y1023335D01*
X19028815Y1059271D01*
X18955865Y1081400D01*
X18880000Y1088872D01*
X17180000Y1088872D01*
X17104135Y1081400D01*
X17031185Y1059271D01*
X16963954Y1023335D01*
X16905026Y974974D01*
X16856665Y916046D01*
X16820729Y848815D01*
X16798600Y775865D01*
X16791128Y700000D01*
X16791128Y437000D01*
X16028825Y437000D01*
X15999999Y439839D01*
X15971173Y437000D01*
X15971166Y437000D01*
X15884928Y428506D01*
X15774278Y394941D01*
X15672302Y340434D01*
X15582920Y267080D01*
X15564534Y244677D01*
X15505321Y185463D01*
X15482921Y167080D01*
X15409567Y77698D01*
X15355059Y-24278D01*
X15321494Y-134928D01*
X15316365Y-187000D01*
X15310160Y-250000D01*
X15313000Y-278834D01*
X15313000Y-406858D01*
X15306858Y-413000D01*
X13915725Y-413000D01*
X13911480Y-407828D01*
X13842172Y-338520D01*
X13783244Y-290159D01*
X13701745Y-235703D01*
X13634511Y-199766D01*
X13543955Y-162257D01*
X13471007Y-140129D01*
X13374874Y-121007D01*
X13299009Y-113535D01*
X13274449Y-113535D01*
X13250000Y-111127D01*
X12750000Y-111127D01*
X12725551Y-113535D01*
X12700991Y-113535D01*
X12625126Y-121007D01*
X12528993Y-140129D01*
X12456045Y-162257D01*
X12365489Y-199766D01*
X12298255Y-235703D01*
X12216756Y-290159D01*
X12157828Y-338520D01*
X12088520Y-407828D01*
X12040159Y-466756D01*
X11985703Y-548255D01*
X11977822Y-563000D01*
X9628825Y-563000D01*
X9599999Y-560161D01*
X9571173Y-563000D01*
X9571166Y-563000D01*
X9496251Y-570379D01*
X9484927Y-571494D01*
X9464479Y-577697D01*
X9374278Y-605059D01*
X9272302Y-659566D01*
X9182920Y-732920D01*
X9164539Y-755317D01*
X9038115Y-881742D01*
X8999610Y-889401D01*
X8874584Y-941189D01*
X8762063Y-1016372D01*
X8666372Y-1112063D01*
X8591189Y-1224584D01*
X8539401Y-1349610D01*
X8513000Y-1482336D01*
X8513000Y-1617664D01*
X8539401Y-1750390D01*
X8591189Y-1875416D01*
X8666372Y-1987937D01*
X8762063Y-2083628D01*
X8874584Y-2158811D01*
X8999610Y-2210599D01*
X9132336Y-2237000D01*
X9267664Y-2237000D01*
X9400390Y-2210599D01*
X9525416Y-2158811D01*
X9637937Y-2083628D01*
X9733628Y-1987937D01*
X9808811Y-1875416D01*
X9860599Y-1750390D01*
X9863262Y-1737000D01*
X11867332Y-1737000D01*
X11861127Y-1800000D01*
X11861127Y-2300000D01*
X11863535Y-2324449D01*
X11863535Y-2349009D01*
X11871007Y-2424874D01*
X11890129Y-2521007D01*
X11912257Y-2593955D01*
X11949766Y-2684511D01*
X11985703Y-2751745D01*
X12040159Y-2833244D01*
X12088520Y-2892172D01*
X12157828Y-2961480D01*
X12216756Y-3009841D01*
X12298255Y-3064297D01*
X12313000Y-3072178D01*
X12313001Y-6361128D01*
X11650000Y-6361128D01*
X11574135Y-6368600D01*
X11501185Y-6390729D01*
X11433954Y-6426665D01*
X11375026Y-6475026D01*
X11326665Y-6533954D01*
X11290729Y-6601185D01*
X11268600Y-6674135D01*
X11261128Y-6750000D01*
X11261128Y-7963000D01*
X7738872Y-7963000D01*
X7738872Y-7900000D01*
X7731400Y-7824135D01*
X7709271Y-7751185D01*
X7673335Y-7683954D01*
X7624974Y-7625026D01*
X7566046Y-7576665D01*
X7498815Y-7540729D01*
X7425865Y-7518600D01*
X7350000Y-7511128D01*
X5350000Y-7511128D01*
X5274135Y-7518600D01*
X5201185Y-7540729D01*
X5133954Y-7576665D01*
X5075026Y-7625026D01*
X5026665Y-7683954D01*
X4990729Y-7751185D01*
X4968600Y-7824135D01*
X4961128Y-7900000D01*
X3187000Y-7900000D01*
X3187000Y-7782336D01*
X3160599Y-7649610D01*
X3108811Y-7524584D01*
X3087000Y-7491941D01*
X3087000Y-5608059D01*
X3108811Y-5575416D01*
X3160599Y-5450390D01*
X3187000Y-5317664D01*
X3187000Y-5182336D01*
X3160599Y-5049610D01*
X3108811Y-4924584D01*
X3087000Y-4891941D01*
X3087000Y-3008059D01*
X3108811Y-2975416D01*
X3160599Y-2850390D01*
X3187000Y-2717664D01*
X3187000Y-2582336D01*
X3160599Y-2449610D01*
X3108811Y-2324584D01*
X3087000Y-2291941D01*
X3087000Y-1587000D01*
X4371977Y-1587000D01*
X4390728Y-1648815D01*
X4391361Y-1650000D01*
X4390728Y-1651185D01*
X4368599Y-1724135D01*
X4361127Y-1800000D01*
X4361127Y-2300000D01*
X4363535Y-2324449D01*
X4363535Y-2349009D01*
X4371007Y-2424874D01*
X4390129Y-2521007D01*
X4412257Y-2593955D01*
X4449766Y-2684511D01*
X4485703Y-2751745D01*
X4540159Y-2833244D01*
X4588520Y-2892172D01*
X4657828Y-2961480D01*
X4716756Y-3009841D01*
X4798255Y-3064297D01*
X4813001Y-3072179D01*
X4813001Y-3466241D01*
X4813000Y-3466251D01*
X4809676Y-3500000D01*
X4813000Y-3533745D01*
X4813001Y-5466245D01*
X4809676Y-5500000D01*
X4813001Y-5533750D01*
X4822941Y-5634676D01*
X4839098Y-5687937D01*
X4862224Y-5764175D01*
X4926016Y-5883523D01*
X4961128Y-5926307D01*
X4961128Y-7100000D01*
X4968600Y-7175865D01*
X4990729Y-7248815D01*
X5026665Y-7316046D01*
X5075026Y-7374974D01*
X5133954Y-7423335D01*
X5201185Y-7459271D01*
X5274135Y-7481400D01*
X5350000Y-7488872D01*
X7350000Y-7488872D01*
X7425865Y-7481400D01*
X7498815Y-7459271D01*
X7566046Y-7423335D01*
X7624974Y-7374974D01*
X7673335Y-7316046D01*
X7709271Y-7248815D01*
X7731400Y-7175865D01*
X7738872Y-7100000D01*
X7738872Y-5600000D01*
X7731400Y-5524135D01*
X7709271Y-5451185D01*
X7673335Y-5383954D01*
X7624974Y-5325026D01*
X7566046Y-5276665D01*
X7498815Y-5240729D01*
X7425865Y-5218600D01*
X7350000Y-5211128D01*
X6187000Y-5211128D01*
X6187000Y-4337000D01*
X7730842Y-4337000D01*
X7734283Y-4348344D01*
X7792744Y-4457716D01*
X7871419Y-4553581D01*
X7967284Y-4632256D01*
X8076656Y-4690717D01*
X8195332Y-4726716D01*
X8318750Y-4738872D01*
X8806250Y-4738872D01*
X8929668Y-4726716D01*
X9048344Y-4690717D01*
X9157716Y-4632256D01*
X9253581Y-4553581D01*
X9332256Y-4457716D01*
X9390717Y-4348344D01*
X9426716Y-4229668D01*
X9438872Y-4106250D01*
X9438872Y-3193750D01*
X9426716Y-3070332D01*
X9390717Y-2951656D01*
X9332256Y-2842284D01*
X9253581Y-2746419D01*
X9157716Y-2667744D01*
X9048344Y-2609283D01*
X8929668Y-2573284D01*
X8806250Y-2561128D01*
X8318750Y-2561128D01*
X8195332Y-2573284D01*
X8076656Y-2609283D01*
X7967284Y-2667744D01*
X7871419Y-2746419D01*
X7792744Y-2842284D01*
X7734283Y-2951656D01*
X7730842Y-2963000D01*
X6340320Y-2963000D01*
X6342172Y-2961480D01*
X6411480Y-2892172D01*
X6456759Y-2837000D01*
X6823632Y-2837000D01*
X6850000Y-2839597D01*
X6876368Y-2837000D01*
X6876378Y-2837000D01*
X6955270Y-2829230D01*
X7056495Y-2798524D01*
X7149785Y-2748659D01*
X7231553Y-2681553D01*
X7248368Y-2661064D01*
X7361064Y-2548368D01*
X7381553Y-2531553D01*
X7448659Y-2449785D01*
X7498524Y-2356495D01*
X7529230Y-2255270D01*
X7537000Y-2176378D01*
X7537000Y-2176369D01*
X7539597Y-2150001D01*
X7537000Y-2123633D01*
X7537000Y-676371D01*
X7539597Y-650000D01*
X7537000Y-623629D01*
X7537000Y-623622D01*
X7529230Y-544730D01*
X7498524Y-443505D01*
X7498524Y-443504D01*
X7448659Y-350215D01*
X7398368Y-288936D01*
X7381553Y-268447D01*
X7361064Y-251632D01*
X6946432Y163000D01*
X7067664Y163000D01*
X7200390Y189401D01*
X7325416Y241189D01*
X7432890Y313000D01*
X12973632Y313000D01*
X13000000Y310403D01*
X13026368Y313000D01*
X13026378Y313000D01*
X13105270Y320770D01*
X13206495Y351476D01*
X13299785Y401341D01*
X13381553Y468447D01*
X13398368Y488936D01*
X13573616Y664184D01*
X13700390Y689401D01*
X13825416Y741189D01*
X13937937Y816372D01*
X14033628Y912063D01*
X14108811Y1024584D01*
X14160599Y1149610D01*
X14187000Y1282336D01*
X14187000Y1417664D01*
X14160599Y1550390D01*
X14108811Y1675416D01*
X14033628Y1787937D01*
X13937937Y1883628D01*
X13825416Y1958811D01*
X13700390Y2010599D01*
X13567664Y2037000D01*
X13432336Y2037000D01*
X13299610Y2010599D01*
X13174584Y1958811D01*
X13062063Y1883628D01*
X12966372Y1787937D01*
X12891189Y1675416D01*
X12839401Y1550390D01*
X12814184Y1423616D01*
X12777568Y1387000D01*
X7432890Y1387000D01*
X7325416Y1458811D01*
X7200390Y1510599D01*
X7067664Y1537000D01*
X6932336Y1537000D01*
X6799610Y1510599D01*
X6674584Y1458811D01*
X6562063Y1383628D01*
X6466372Y1287937D01*
X6391189Y1175416D01*
X6339401Y1050390D01*
X6313000Y917664D01*
X6313000Y787814D01*
X6299785Y798659D01*
X6206495Y848524D01*
X6105270Y879230D01*
X6026378Y887000D01*
X6026368Y887000D01*
X6000000Y889597D01*
X5973632Y887000D01*
X3722433Y887000D01*
X3685816Y923617D01*
X3660599Y1050390D01*
X3608811Y1175416D01*
X3533628Y1287937D01*
X3437937Y1383628D01*
X3325416Y1458811D01*
X3200390Y1510599D01*
X3067664Y1537000D01*
X2932336Y1537000D01*
X2799610Y1510599D01*
X2674584Y1458811D01*
X2562063Y1383628D01*
X2466372Y1287937D01*
X2391189Y1175416D01*
X2339401Y1050390D01*
X2313000Y917664D01*
X2313000Y782336D01*
X2339401Y649610D01*
X2391189Y524584D01*
X2466372Y412063D01*
X2562063Y316372D01*
X2674584Y241189D01*
X2799610Y189401D01*
X2926383Y164184D01*
X3101636Y-11069D01*
X3118447Y-31553D01*
X3138931Y-48364D01*
X3138935Y-48368D01*
X3200215Y-98659D01*
X3293505Y-148524D01*
X3394730Y-179230D01*
X3473622Y-187000D01*
X3473632Y-187000D01*
X3500000Y-189597D01*
X3526368Y-187000D01*
X4896309Y-187000D01*
X4865489Y-199766D01*
X4798255Y-235703D01*
X4716756Y-290159D01*
X4657828Y-338520D01*
X4588520Y-407828D01*
X4584275Y-413000D01*
X2993142Y-413000D01*
X2935468Y-355326D01*
X2917080Y-332920D01*
X2894684Y-314540D01*
X2335468Y244674D01*
X2317080Y267080D01*
X2227698Y340434D01*
X2125722Y394941D01*
X2015072Y428506D01*
X1928834Y437000D01*
X1900000Y439840D01*
X1871166Y437000D01*
X1488872Y437000D01*
X1488872Y700000D01*
X1481400Y775865D01*
X1459271Y848815D01*
X1423335Y916046D01*
X1374974Y974974D01*
X1316046Y1023335D01*
X1248815Y1059271D01*
X1175865Y1081400D01*
X1100000Y1088872D01*
X-600000Y1088872D01*
X-675865Y1081400D01*
X-748815Y1059271D01*
X-816046Y1023335D01*
X-874974Y974974D01*
X-923335Y916046D01*
X-959271Y848815D01*
X-981400Y775865D01*
X-988872Y700000D01*
X-2088000Y700000D01*
X-2088000Y1479846D01*
X-2074863Y1613826D01*
X-2041806Y1723316D01*
X-1988110Y1824304D01*
X-1915826Y1912933D01*
X-1827703Y1985834D01*
X-1727094Y2040234D01*
X-1617836Y2074055D01*
X-1485159Y2088000D01*
X19479846Y2088000D01*
X19613826Y2074863D01*
G37*
G04 #@! TD.AperFunction*
M02*
