G04 #@! TF.GenerationSoftware,KiCad,Pcbnew,(5.1.9)-1*
G04 #@! TF.CreationDate,2021-04-25T10:49:25+05:30*
G04 #@! TF.ProjectId,LOGIC LEVEL SHIFTER,4c4f4749-4320-44c4-9556-454c20534849,rev?*
G04 #@! TF.SameCoordinates,Original*
G04 #@! TF.FileFunction,Soldermask,Bot*
G04 #@! TF.FilePolarity,Negative*
%FSLAX46Y46*%
G04 Gerber Fmt 4.6, Leading zero omitted, Abs format (unit mm)*
G04 Created by KiCad (PCBNEW (5.1.9)-1) date 2021-04-25 10:49:25*
%MOMM*%
%LPD*%
G01*
G04 APERTURE LIST*
%ADD10R,2.000000X1.500000*%
%ADD11R,2.000000X3.800000*%
%ADD12C,0.100000*%
%ADD13R,1.700000X1.700000*%
%ADD14O,1.700000X1.700000*%
G04 APERTURE END LIST*
D10*
X6350000Y-10950000D03*
X6350000Y-6350000D03*
X6350000Y-8650000D03*
D11*
X12650000Y-8650000D03*
D12*
G36*
X13750000Y-1800000D02*
G01*
X13750000Y-2300000D01*
X13749398Y-2300000D01*
X13749398Y-2324534D01*
X13744588Y-2373365D01*
X13735016Y-2421490D01*
X13720772Y-2468445D01*
X13701995Y-2513778D01*
X13678864Y-2557051D01*
X13651604Y-2597850D01*
X13620476Y-2635779D01*
X13585779Y-2670476D01*
X13547850Y-2701604D01*
X13507051Y-2728864D01*
X13463778Y-2751995D01*
X13418445Y-2770772D01*
X13371490Y-2785016D01*
X13323365Y-2794588D01*
X13274534Y-2799398D01*
X13250000Y-2799398D01*
X13250000Y-2800000D01*
X12750000Y-2800000D01*
X12750000Y-2799398D01*
X12725466Y-2799398D01*
X12676635Y-2794588D01*
X12628510Y-2785016D01*
X12581555Y-2770772D01*
X12536222Y-2751995D01*
X12492949Y-2728864D01*
X12452150Y-2701604D01*
X12414221Y-2670476D01*
X12379524Y-2635779D01*
X12348396Y-2597850D01*
X12321136Y-2557051D01*
X12298005Y-2513778D01*
X12279228Y-2468445D01*
X12264984Y-2421490D01*
X12255412Y-2373365D01*
X12250602Y-2324534D01*
X12250602Y-2300000D01*
X12250000Y-2300000D01*
X12250000Y-1800000D01*
X13750000Y-1800000D01*
G37*
G36*
X12250602Y-1000000D02*
G01*
X12250602Y-975466D01*
X12255412Y-926635D01*
X12264984Y-878510D01*
X12279228Y-831555D01*
X12298005Y-786222D01*
X12321136Y-742949D01*
X12348396Y-702150D01*
X12379524Y-664221D01*
X12414221Y-629524D01*
X12452150Y-598396D01*
X12492949Y-571136D01*
X12536222Y-548005D01*
X12581555Y-529228D01*
X12628510Y-514984D01*
X12676635Y-505412D01*
X12725466Y-500602D01*
X12750000Y-500602D01*
X12750000Y-500000D01*
X13250000Y-500000D01*
X13250000Y-500602D01*
X13274534Y-500602D01*
X13323365Y-505412D01*
X13371490Y-514984D01*
X13418445Y-529228D01*
X13463778Y-548005D01*
X13507051Y-571136D01*
X13547850Y-598396D01*
X13585779Y-629524D01*
X13620476Y-664221D01*
X13651604Y-702150D01*
X13678864Y-742949D01*
X13701995Y-786222D01*
X13720772Y-831555D01*
X13735016Y-878510D01*
X13744588Y-926635D01*
X13749398Y-975466D01*
X13749398Y-1000000D01*
X13750000Y-1000000D01*
X13750000Y-1500000D01*
X12250000Y-1500000D01*
X12250000Y-1000000D01*
X12250602Y-1000000D01*
G37*
G36*
X6250000Y-1800000D02*
G01*
X6250000Y-2300000D01*
X6249398Y-2300000D01*
X6249398Y-2324534D01*
X6244588Y-2373365D01*
X6235016Y-2421490D01*
X6220772Y-2468445D01*
X6201995Y-2513778D01*
X6178864Y-2557051D01*
X6151604Y-2597850D01*
X6120476Y-2635779D01*
X6085779Y-2670476D01*
X6047850Y-2701604D01*
X6007051Y-2728864D01*
X5963778Y-2751995D01*
X5918445Y-2770772D01*
X5871490Y-2785016D01*
X5823365Y-2794588D01*
X5774534Y-2799398D01*
X5750000Y-2799398D01*
X5750000Y-2800000D01*
X5250000Y-2800000D01*
X5250000Y-2799398D01*
X5225466Y-2799398D01*
X5176635Y-2794588D01*
X5128510Y-2785016D01*
X5081555Y-2770772D01*
X5036222Y-2751995D01*
X4992949Y-2728864D01*
X4952150Y-2701604D01*
X4914221Y-2670476D01*
X4879524Y-2635779D01*
X4848396Y-2597850D01*
X4821136Y-2557051D01*
X4798005Y-2513778D01*
X4779228Y-2468445D01*
X4764984Y-2421490D01*
X4755412Y-2373365D01*
X4750602Y-2324534D01*
X4750602Y-2300000D01*
X4750000Y-2300000D01*
X4750000Y-1800000D01*
X6250000Y-1800000D01*
G37*
G36*
X4750602Y-1000000D02*
G01*
X4750602Y-975466D01*
X4755412Y-926635D01*
X4764984Y-878510D01*
X4779228Y-831555D01*
X4798005Y-786222D01*
X4821136Y-742949D01*
X4848396Y-702150D01*
X4879524Y-664221D01*
X4914221Y-629524D01*
X4952150Y-598396D01*
X4992949Y-571136D01*
X5036222Y-548005D01*
X5081555Y-529228D01*
X5128510Y-514984D01*
X5176635Y-505412D01*
X5225466Y-500602D01*
X5250000Y-500602D01*
X5250000Y-500000D01*
X5750000Y-500000D01*
X5750000Y-500602D01*
X5774534Y-500602D01*
X5823365Y-505412D01*
X5871490Y-514984D01*
X5918445Y-529228D01*
X5963778Y-548005D01*
X6007051Y-571136D01*
X6047850Y-598396D01*
X6085779Y-629524D01*
X6120476Y-664221D01*
X6151604Y-702150D01*
X6178864Y-742949D01*
X6201995Y-786222D01*
X6220772Y-831555D01*
X6235016Y-878510D01*
X6244588Y-926635D01*
X6249398Y-975466D01*
X6249398Y-1000000D01*
X6250000Y-1000000D01*
X6250000Y-1500000D01*
X4750000Y-1500000D01*
X4750000Y-1000000D01*
X4750602Y-1000000D01*
G37*
D13*
X18030000Y-150000D03*
D14*
X18030000Y-2690000D03*
X18030000Y-5230000D03*
X18030000Y-7770000D03*
X18030000Y-10310000D03*
X18030000Y-12850000D03*
X18030000Y-15390000D03*
X18030000Y-17930000D03*
X250000Y-17930000D03*
X250000Y-15390000D03*
X250000Y-12850000D03*
X250000Y-10310000D03*
X250000Y-7770000D03*
X250000Y-5230000D03*
X250000Y-2690000D03*
D13*
X250000Y-150000D03*
G36*
G01*
X9050000Y-13193750D02*
X9050000Y-14106250D01*
G75*
G02*
X8806250Y-14350000I-243750J0D01*
G01*
X8318750Y-14350000D01*
G75*
G02*
X8075000Y-14106250I0J243750D01*
G01*
X8075000Y-13193750D01*
G75*
G02*
X8318750Y-12950000I243750J0D01*
G01*
X8806250Y-12950000D01*
G75*
G02*
X9050000Y-13193750I0J-243750D01*
G01*
G37*
G36*
G01*
X10925000Y-13193750D02*
X10925000Y-14106250D01*
G75*
G02*
X10681250Y-14350000I-243750J0D01*
G01*
X10193750Y-14350000D01*
G75*
G02*
X9950000Y-14106250I0J243750D01*
G01*
X9950000Y-13193750D01*
G75*
G02*
X10193750Y-12950000I243750J0D01*
G01*
X10681250Y-12950000D01*
G75*
G02*
X10925000Y-13193750I0J-243750D01*
G01*
G37*
G36*
G01*
X9050000Y-3193750D02*
X9050000Y-4106250D01*
G75*
G02*
X8806250Y-4350000I-243750J0D01*
G01*
X8318750Y-4350000D01*
G75*
G02*
X8075000Y-4106250I0J243750D01*
G01*
X8075000Y-3193750D01*
G75*
G02*
X8318750Y-2950000I243750J0D01*
G01*
X8806250Y-2950000D01*
G75*
G02*
X9050000Y-3193750I0J-243750D01*
G01*
G37*
G36*
G01*
X10925000Y-3193750D02*
X10925000Y-4106250D01*
G75*
G02*
X10681250Y-4350000I-243750J0D01*
G01*
X10193750Y-4350000D01*
G75*
G02*
X9950000Y-4106250I0J243750D01*
G01*
X9950000Y-3193750D01*
G75*
G02*
X10193750Y-2950000I243750J0D01*
G01*
X10681250Y-2950000D01*
G75*
G02*
X10925000Y-3193750I0J-243750D01*
G01*
G37*
M02*
